<?xml version="1.0" standalone="no"?>
<!DOCTYPE svg PUBLIC "-//W3C//DTD SVG 20010904//EN"
 "http://www.w3.org/TR/2001/REC-SVG-20010904/DTD/svg10.dtd">
<svg version="1.0" xmlns="http://www.w3.org/2000/svg"
 width="192.000000pt" height="188.000000pt" viewBox="0 0 192.000000 188.000000"
 preserveAspectRatio="xMidYMid meet">

<g transform="translate(0.000000,188.000000) scale(0.100000,-0.100000)"
fill="#000000" stroke="none">
<path d="M801 1759 c-75 -14 -142 -39 -236 -87 -73 -38 -108 -64 -186 -142
-173 -171 -249 -351 -249 -590 0 -236 76 -418 244 -586 169 -169 349 -244 587
-244 397 0 728 266 814 655 13 58 16 108 13 208 -4 116 -8 144 -37 227 -97
286 -329 494 -620 556 -72 15 -260 17 -330 3z m116 -81 c-3 -8 -6 -5 -6 6 -1
11 2 17 5 13 3 -3 4 -12 1 -19z m59 -5 c-10 -10 -19 5 -10 18 6 11 8 11 12 0
2 -7 1 -15 -2 -18z m51 -5 c-3 -7 -5 -2 -5 12 0 14 2 19 5 13 2 -7 2 -19 0
-25z m-197 12 c0 -5 -9 -10 -20 -10 -11 0 -20 -7 -20 -15 0 -9 9 -15 23 -15
20 -1 21 -2 5 -14 -27 -20 -22 -38 7 -30 15 4 25 2 25 -5 0 -6 -6 -11 -12 -11
-7 0 -22 -3 -33 -6 -18 -5 -22 1 -31 46 -10 48 -9 52 10 60 29 12 46 12 46 0z
m268 -1 c-25 -14 -22 -39 5 -40 21 -1 21 -1 -3 -8 -30 -8 -39 -38 -13 -44 15
-3 14 -4 -2 -3 -16 1 -20 7 -18 31 4 53 13 75 31 75 16 -1 16 -1 0 -11z m-157
-69 c6 0 7 -5 3 -11 -10 -16 -24 10 -22 41 1 24 1 24 5 -2 2 -16 9 -28 14 -28z
m16 18 c-3 -7 -5 -2 -5 12 0 14 2 19 5 13 2 -7 2 -19 0 -25z m30 0 c-3 -7 -5
-2 -5 12 0 14 2 19 5 13 2 -7 2 -19 0 -25z m287 1 c5 -4 0 -6 -11 -3 -16 4
-22 -3 -33 -35 -7 -23 -17 -41 -21 -41 -4 0 0 19 11 42 17 39 17 43 2 55 -14
11 -12 11 13 1 17 -6 34 -15 39 -19z m-536 -4 c23 -50 6 -85 -41 -85 -21 0
-52 91 -35 102 28 17 65 9 76 -17z m278 -10 c-6 -24 -26 -36 -26 -15 0 6 5 10
10 10 6 0 10 10 10 22 0 12 3 19 6 15 4 -3 4 -18 0 -32z m334 -23 c19 -16 21
-22 11 -40 -6 -12 -16 -22 -21 -22 -5 0 -11 -10 -13 -22 -4 -20 -4 -20 -6 4
-1 32 -20 41 -44 20 -13 -11 -10 -2 9 31 14 26 29 47 34 47 4 0 18 -8 30 -18z
m-716 -14 c24 -34 20 -67 -10 -80 -24 -11 -29 -9 -50 15 -13 16 -24 36 -24 46
0 43 58 56 84 19z m-129 -48 c-35 -38 17 -94 53 -58 7 7 12 8 12 2 0 -15 -22
-34 -39 -34 -23 0 -61 41 -61 66 0 13 8 28 18 33 28 17 36 12 17 -9z m906 2
c-5 -10 -17 -24 -25 -32 -20 -16 -20 -34 0 -51 14 -12 21 -8 51 26 19 22 30
31 25 20 -6 -11 -21 -31 -35 -43 -21 -20 -29 -22 -46 -13 -28 15 -26 35 5 77
29 37 40 45 25 16z m-312 -27 c96 -23 196 -80 271 -155 228 -228 228 -592 0
-820 -228 -228 -592 -228 -820 0 -228 227 -228 592 0 819 75 75 176 133 272
157 73 17 200 17 277 -1z m432 -62 c13 -16 12 -17 -3 -4 -10 7 -25 11 -33 7
-12 -4 -13 -10 -3 -31 10 -21 9 -29 -5 -43 -16 -15 -18 -15 -40 8 l-22 24 23
-19 c31 -25 51 -8 34 30 -7 15 -10 31 -7 36 10 15 42 10 56 -8z m-1095 -29
c40 -31 43 -44 12 -44 -16 0 -19 3 -10 9 10 6 6 15 -18 35 -41 34 -29 34 16 0z
m-31 -25 c15 -6 11 -7 -15 -3 l-35 6 40 -37 40 -37 -42 32 c-24 17 -43 36 -43
41 0 11 29 11 55 -2z m1195 -44 c0 -5 -4 -4 -9 4 -7 11 -16 8 -45 -14 -20 -15
-39 -25 -42 -23 -3 3 11 16 31 28 28 18 35 27 31 44 -5 19 -3 19 14 -4 11 -14
20 -29 20 -35z m-1195 -54 c-5 -4 -85 46 -85 54 0 2 20 -8 45 -22 24 -15 42
-29 40 -32z m1215 -86 c0 -5 -5 -3 -10 5 -5 8 -10 20 -10 25 0 6 5 3 10 -5 5
-8 10 -19 10 -25z m-1309 -2 c-12 -20 -14 -14 -5 12 4 9 9 14 11 11 3 -2 0
-13 -6 -23z m1336 -95 c-3 -8 -6 -5 -6 6 -1 11 2 17 5 13 3 -3 4 -12 1 -19z
m-1370 -10 c-3 -8 -6 -5 -6 6 -1 11 2 17 5 13 3 -3 4 -12 1 -19z m1380 -40
c-3 -7 -5 -2 -5 12 0 14 2 19 5 13 2 -7 2 -19 0 -25z m-1390 -20 c-3 -7 -5 -2
-5 12 0 14 2 19 5 13 2 -7 2 -19 0 -25z m1400 -145 c-2 -27 -3 -5 -3 47 0 52
1 74 3 48 2 -27 2 -69 0 -95z m-1410 15 c-2 -18 -4 -4 -4 32 0 36 2 50 4 33 2
-18 2 -48 0 -65z m10 -90 c-3 -7 -5 -2 -5 12 0 14 2 19 5 13 2 -7 2 -19 0 -25z
m1390 -20 c-3 -7 -5 -2 -5 12 0 14 2 19 5 13 2 -7 2 -19 0 -25z m-1380 -30
c-3 -8 -6 -5 -6 6 -1 11 2 17 5 13 3 -3 4 -12 1 -19z m1370 -10 c-3 -8 -6 -5
-6 6 -1 11 2 17 5 13 3 -3 4 -12 1 -19z m-1327 -103 c0 -5 -5 -3 -10 5 -5 8
-10 20 -10 25 0 6 5 3 10 -5 5 -8 10 -19 10 -25z m1276 -34 c-15 -28 -28 -51
-31 -51 -3 0 7 25 22 55 15 30 29 53 31 51 2 -2 -8 -27 -22 -55z m-1236 -41
c6 -11 8 -20 6 -20 -3 0 -10 9 -16 20 -6 11 -8 20 -6 20 3 0 10 -9 16 -20z
m1173 -59 c-15 -22 -30 -38 -32 -36 -3 4 49 75 56 75 2 0 -8 -18 -24 -39z
m-1127 -8 c15 -20 23 -33 16 -29 -13 8 -56 66 -49 66 3 0 17 -17 33 -37z m182
-123 c6 0 12 -5 12 -11 0 -7 -10 -9 -25 -5 -24 6 -35 -7 -15 -19 12 -8 13 -25
2 -25 -9 0 -32 44 -32 62 0 6 9 8 23 4 12 -3 28 -6 35 -6z m812 5 c0 -11 -31
-65 -36 -65 -4 0 -3 12 0 26 6 23 4 26 -13 21 -12 -3 -23 -1 -26 3 -3 5 5 11
17 13 36 7 58 7 58 2z m-680 -105 c0 -23 -19 -38 -41 -33 -23 6 -23 5 -4 50
15 35 16 35 30 17 8 -10 15 -26 15 -34z m529 -6 c-10 -12 -9 -13 4 -9 20 8 32
-12 17 -30 -19 -23 -27 -18 -46 21 -17 35 -17 37 1 50 16 12 20 12 28 -1 5
-10 4 -22 -4 -31z m-63 -14 c1 -17 -3 -30 -7 -30 -5 0 -9 3 -9 8 0 4 -3 17 -6
30 -4 15 -2 22 7 22 9 0 14 -12 15 -30z m-402 12 c8 -13 -11 -35 -23 -28 -6 4
-11 3 -11 -3 0 -5 6 -12 13 -14 7 -3 5 -6 -6 -6 -20 -1 -32 22 -23 44 6 16 41
21 50 7z m196 -32 c0 -44 -19 -61 -45 -40 -20 17 -19 24 8 54 30 35 37 33 37
-14z m168 -4 c-4 -30 -42 -28 -46 3 -2 13 2 27 9 32 18 11 41 -10 37 -35z
m-308 24 c0 -5 -7 -10 -15 -10 -8 0 -15 -7 -15 -15 0 -8 5 -15 10 -15 6 0 10
-4 10 -10 0 -5 -7 -7 -15 -4 -15 6 -21 45 -8 57 10 11 33 8 33 -3z m65 -30 c0
-16 -6 -26 -19 -28 -24 -5 -37 17 -25 41 14 26 44 17 44 -13z m133 18 c18 -18
15 -28 -10 -29 -22 -2 -22 -2 1 -6 18 -4 21 -7 11 -13 -20 -12 -40 0 -40 24 0
35 16 46 38 24z"/>
<path d="M682 1600 c5 -17 14 -33 20 -36 17 -11 31 13 24 40 -5 19 -13 26 -31
26 -22 0 -23 -2 -13 -30z"/>
<path d="M1312 1588 c-17 -17 -15 -35 4 -42 17 -6 44 9 44 25 0 16 -36 29 -48
17z"/>
<path d="M583 1583 c-17 -6 -16 -33 2 -57 15 -20 45 -16 45 8 0 20 -33 55 -47
49z"/>
<path d="M826 1495 c-206 -52 -372 -221 -421 -426 -70 -300 117 -605 420 -684
189 -49 391 9 536 154 298 298 189 787 -209 938 -85 32 -237 40 -326 18z m-56
-206 l0 -60 22 15 c12 9 39 16 59 16 102 0 140 -135 58 -204 -35 -30 -67 -33
-109 -11 -27 14 -30 14 -30 0 0 -11 -7 -15 -22 -13 -23 3 -23 6 -26 161 l-3
157 26 0 c24 0 25 -2 25 -61z m386 -47 c28 -22 44 -54 44 -86 0 -26 0 -26 -90
-26 -49 0 -90 -4 -90 -9 0 -14 50 -51 69 -51 9 0 28 6 43 14 19 10 29 11 37 3
17 -17 13 -25 -19 -42 -68 -35 -150 -5 -171 64 -15 50 -6 86 31 122 24 24 37
29 77 29 30 0 56 -7 69 -18z m-6 -351 l0 -88 -47 -1 c-56 -2 -83 18 -83 60 0
40 34 72 71 64 25 -5 29 -3 29 18 0 24 7 36 22 36 4 0 8 -40 8 -89z m-393 67
c-3 -7 -24 -55 -47 -105 -36 -79 -46 -93 -66 -93 -28 0 -26 6 35 129 32 63 46
81 62 81 13 0 19 -5 16 -12z m-149 -45 c-2 -10 -18 -26 -37 -35 l-34 -17 37
-17 c22 -11 36 -25 36 -36 0 -24 -10 -23 -75 9 -72 36 -73 56 -2 88 63 29 79
31 75 8z m243 6 c27 -14 14 -30 -19 -23 -34 7 -57 -15 -47 -45 7 -25 41 -37
60 -21 10 8 15 8 20 -1 10 -15 -13 -29 -51 -29 -35 0 -49 12 -59 52 -5 21 -1
33 19 52 27 28 46 32 77 15z m122 0 c28 -15 37 -28 37 -58 0 -54 -71 -82 -112
-44 -24 21 -23 68 2 93 23 23 42 25 73 9z m297 -9 c11 -11 20 -29 20 -40 0
-17 -7 -20 -50 -20 -27 0 -50 -4 -50 -10 0 -12 45 -24 59 -15 6 3 16 3 22 -1
17 -10 -10 -24 -48 -24 -60 0 -84 72 -37 109 33 26 58 27 84 1z m118 -5 c71
-33 70 -55 -4 -89 -66 -30 -74 -31 -74 -11 0 9 16 25 35 36 l36 21 -33 17
c-33 16 -51 51 -26 51 7 0 37 -11 66 -25z"/>
<path d="M791 1194 c-23 -30 -26 -55 -10 -85 24 -45 96 -40 118 8 34 74 -59
140 -108 77z"/>
<path d="M1047 1208 c-35 -28 -24 -40 36 -40 68 -1 77 5 52 32 -20 23 -63 26
-88 8z"/>
<path d="M1054 875 c-5 -18 -1 -32 10 -43 23 -23 51 -4 51 34 0 24 -5 30 -27
32 -22 3 -29 -2 -34 -23z"/>
<path d="M681 869 c-38 -81 -47 -120 -22 -93 22 22 89 184 77 184 -7 0 -32
-41 -55 -91z"/>
<path d="M538 897 c-27 -11 -48 -27 -48 -34 0 -7 22 -24 50 -38 55 -28 60 -29
60 -15 0 5 -19 19 -42 31 l-43 22 43 18 c23 10 42 23 42 29 0 13 -6 12 -62
-13z"/>
<path d="M912 884 c-13 -23 -4 -52 20 -59 26 -9 50 13 46 44 -2 20 -9 27 -30
29 -17 2 -30 -3 -36 -14z"/>
<path d="M1197 894 c-15 -16 -5 -24 29 -24 24 0 34 4 32 13 -5 13 -50 22 -61
11z"/>
<path d="M1320 911 c0 -5 19 -19 43 -29 l42 -19 -42 -22 c-24 -12 -43 -26 -43
-31 0 -14 5 -13 60 15 74 37 70 46 -47 92 -7 3 -13 0 -13 -6z"/>
<path d="M685 289 c-4 -6 -5 -13 -2 -16 7 -7 27 6 27 18 0 12 -17 12 -25 -2z"/>
<path d="M1225 300 c-3 -5 -1 -10 4 -10 6 0 11 5 11 10 0 6 -2 10 -4 10 -3 0
-8 -4 -11 -10z"/>
<path d="M940 235 c0 -8 5 -15 10 -15 6 0 10 7 10 15 0 8 -4 15 -10 15 -5 0
-10 -7 -10 -15z"/>
<path d="M1112 256 c1 -10 8 -17 13 -17 15 1 12 24 -3 29 -9 3 -13 -2 -10 -12z"/>
<path d="M876 253 c-9 -9 -7 -33 3 -33 12 0 22 28 12 34 -5 3 -11 3 -15 -1z"/>
</g>
</svg>
