<?xml version="1.0" encoding="UTF-8"?>
<svg xmlns="http://www.w3.org/2000/svg" xmlns:xlink="http://www.w3.org/1999/xlink" width="50px" height="49px" viewBox="0 0 50 49" version="1.1">
<g id="surface1">
<path style=" stroke:none;fill-rule:nonzero;fill:rgb(0%,0%,0%);fill-opacity:1;" d="M 20.859375 3.152344 C 18.90625 3.519531 17.160156 4.171875 14.714844 5.421875 C 12.8125 6.410156 11.902344 7.089844 9.871094 9.121094 C 5.363281 13.578125 3.386719 18.269531 3.386719 24.5 C 3.386719 30.652344 5.363281 35.394531 9.738281 39.773438 C 14.140625 44.179688 18.828125 46.132812 25.027344 46.132812 C 35.363281 46.132812 43.984375 39.199219 46.222656 29.0625 C 46.5625 27.550781 46.640625 26.246094 46.5625 23.640625 C 46.457031 20.617188 46.355469 19.886719 45.597656 17.722656 C 43.074219 10.269531 37.03125 4.847656 29.453125 3.230469 C 27.578125 2.839844 22.683594 2.789062 20.859375 3.152344 Z M 23.878906 5.265625 C 23.800781 5.472656 23.722656 5.394531 23.722656 5.109375 C 23.699219 4.820312 23.777344 4.664062 23.855469 4.769531 C 23.933594 4.847656 23.957031 5.082031 23.878906 5.265625 Z M 25.417969 5.394531 C 25.15625 5.65625 24.921875 5.265625 25.15625 4.925781 C 25.3125 4.640625 25.363281 4.640625 25.46875 4.925781 C 25.519531 5.109375 25.496094 5.316406 25.417969 5.394531 Z M 26.746094 5.527344 C 26.667969 5.707031 26.613281 5.578125 26.613281 5.210938 C 26.613281 4.847656 26.667969 4.71875 26.746094 4.875 C 26.796875 5.054688 26.796875 5.371094 26.746094 5.527344 Z M 21.613281 5.210938 C 21.613281 5.34375 21.378906 5.472656 21.09375 5.472656 C 20.808594 5.472656 20.574219 5.65625 20.574219 5.863281 C 20.574219 6.097656 20.808594 6.253906 21.171875 6.253906 C 21.691406 6.28125 21.71875 6.308594 21.300781 6.621094 C 20.597656 7.140625 20.730469 7.609375 21.484375 7.402344 C 21.875 7.296875 22.136719 7.351562 22.136719 7.53125 C 22.136719 7.6875 21.980469 7.820312 21.824219 7.820312 C 21.640625 7.820312 21.25 7.898438 20.964844 7.976562 C 20.496094 8.105469 20.390625 7.949219 20.15625 6.777344 C 19.894531 5.527344 19.921875 5.421875 20.417969 5.210938 C 21.171875 4.898438 21.613281 4.898438 21.613281 5.210938 Z M 28.59375 5.238281 C 27.941406 5.605469 28.019531 6.253906 28.722656 6.28125 C 29.269531 6.308594 29.269531 6.308594 28.644531 6.488281 C 27.863281 6.699219 27.628906 7.480469 28.308594 7.636719 C 28.699219 7.714844 28.671875 7.742188 28.253906 7.714844 C 27.839844 7.6875 27.734375 7.53125 27.785156 6.90625 C 27.890625 5.527344 28.125 4.953125 28.59375 4.953125 C 29.011719 4.976562 29.011719 4.976562 28.59375 5.238281 Z M 24.503906 7.039062 C 24.660156 7.039062 24.6875 7.167969 24.582031 7.324219 C 24.324219 7.742188 23.957031 7.0625 24.011719 6.253906 C 24.035156 5.628906 24.035156 5.628906 24.140625 6.308594 C 24.191406 6.722656 24.375 7.039062 24.503906 7.039062 Z M 24.921875 6.566406 C 24.84375 6.75 24.792969 6.621094 24.792969 6.253906 C 24.792969 5.890625 24.84375 5.761719 24.921875 5.917969 C 24.972656 6.097656 24.972656 6.410156 24.921875 6.566406 Z M 25.703125 6.566406 C 25.625 6.75 25.574219 6.621094 25.574219 6.253906 C 25.574219 5.890625 25.625 5.761719 25.703125 5.917969 C 25.753906 6.097656 25.753906 6.410156 25.703125 6.566406 Z M 33.175781 6.542969 C 33.308594 6.644531 33.175781 6.699219 32.890625 6.621094 C 32.472656 6.515625 32.316406 6.699219 32.03125 7.53125 C 31.847656 8.132812 31.589844 8.601562 31.484375 8.601562 C 31.378906 8.601562 31.484375 8.105469 31.769531 7.507812 C 32.214844 6.488281 32.214844 6.386719 31.824219 6.074219 C 31.457031 5.785156 31.511719 5.785156 32.160156 6.046875 C 32.605469 6.203125 33.046875 6.4375 33.175781 6.542969 Z M 19.21875 6.644531 C 19.816406 7.949219 19.375 8.863281 18.152344 8.863281 C 17.605469 8.863281 16.796875 6.488281 17.238281 6.203125 C 17.96875 5.761719 18.933594 5.96875 19.21875 6.644531 Z M 26.457031 6.90625 C 26.300781 7.53125 25.78125 7.84375 25.78125 7.296875 C 25.78125 7.140625 25.910156 7.039062 26.042969 7.039062 C 26.199219 7.039062 26.300781 6.777344 26.300781 6.464844 C 26.300781 6.152344 26.378906 5.96875 26.457031 6.074219 C 26.5625 6.152344 26.5625 6.542969 26.457031 6.90625 Z M 35.15625 7.507812 C 35.652344 7.921875 35.703125 8.078125 35.441406 8.550781 C 35.285156 8.863281 35.027344 9.121094 34.894531 9.121094 C 34.765625 9.121094 34.609375 9.382812 34.558594 9.695312 C 34.453125 10.21875 34.453125 10.21875 34.402344 9.589844 C 34.375 8.757812 33.878906 8.523438 33.253906 9.070312 C 32.917969 9.355469 32.996094 9.121094 33.488281 8.261719 C 33.855469 7.585938 34.246094 7.039062 34.375 7.039062 C 34.480469 7.039062 34.84375 7.246094 35.15625 7.507812 Z M 16.511719 7.871094 C 17.136719 8.757812 17.03125 9.617188 16.25 9.957031 C 15.625 10.242188 15.496094 10.191406 14.949219 9.566406 C 14.609375 9.148438 14.324219 8.628906 14.324219 8.367188 C 14.324219 7.246094 15.832031 6.90625 16.511719 7.871094 Z M 13.152344 9.121094 C 12.238281 10.113281 13.59375 11.574219 14.53125 10.632812 C 14.714844 10.453125 14.84375 10.425781 14.84375 10.582031 C 14.84375 10.972656 14.269531 11.46875 13.828125 11.46875 C 13.230469 11.46875 12.238281 10.398438 12.238281 9.746094 C 12.238281 9.410156 12.449219 9.019531 12.707031 8.886719 C 13.4375 8.445312 13.644531 8.574219 13.152344 9.121094 Z M 36.746094 9.070312 C 36.613281 9.332031 36.300781 9.695312 36.09375 9.902344 C 35.574219 10.320312 35.574219 10.789062 36.09375 11.234375 C 36.457031 11.546875 36.640625 11.441406 37.421875 10.554688 C 37.917969 9.984375 38.203125 9.746094 38.074219 10.035156 C 37.917969 10.320312 37.527344 10.84375 37.160156 11.15625 C 36.613281 11.675781 36.40625 11.730469 35.964844 11.496094 C 35.234375 11.101562 35.285156 10.582031 36.09375 9.488281 C 36.847656 8.523438 37.136719 8.3125 36.746094 9.070312 Z M 28.621094 9.773438 C 31.121094 10.375 33.722656 11.859375 35.675781 13.8125 C 41.613281 19.757812 41.613281 29.242188 35.675781 35.1875 C 29.738281 41.128906 20.261719 41.128906 14.324219 35.1875 C 8.386719 29.269531 8.386719 19.757812 14.324219 13.839844 C 16.277344 11.886719 18.90625 10.375 21.40625 9.746094 C 23.308594 9.304688 26.613281 9.304688 28.621094 9.773438 Z M 39.871094 11.390625 C 40.207031 11.808594 40.183594 11.832031 39.792969 11.496094 C 39.53125 11.3125 39.140625 11.207031 38.933594 11.3125 C 38.621094 11.414062 38.59375 11.574219 38.855469 12.121094 C 39.113281 12.667969 39.089844 12.875 38.722656 13.242188 C 38.308594 13.632812 38.253906 13.632812 37.683594 13.03125 L 37.109375 12.40625 L 37.707031 12.902344 C 38.515625 13.554688 39.035156 13.109375 38.59375 12.121094 C 38.410156 11.730469 38.332031 11.3125 38.410156 11.179688 C 38.671875 10.789062 39.503906 10.921875 39.871094 11.390625 Z M 11.355469 12.144531 C 12.394531 12.953125 12.472656 13.292969 11.667969 13.292969 C 11.25 13.292969 11.171875 13.214844 11.40625 13.058594 C 11.667969 12.902344 11.5625 12.667969 10.9375 12.144531 C 9.871094 11.257812 10.183594 11.257812 11.355469 12.144531 Z M 10.546875 12.796875 C 10.9375 12.953125 10.832031 12.980469 10.15625 12.875 L 9.246094 12.71875 L 10.285156 13.683594 L 11.328125 14.648438 L 10.234375 13.8125 C 9.609375 13.371094 9.113281 12.875 9.113281 12.746094 C 9.113281 12.457031 9.871094 12.457031 10.546875 12.796875 Z M 41.667969 13.945312 C 41.667969 14.074219 41.5625 14.046875 41.433594 13.839844 C 41.25 13.554688 41.015625 13.632812 40.261719 14.203125 C 39.738281 14.597656 39.246094 14.855469 39.167969 14.804688 C 39.089844 14.726562 39.453125 14.386719 39.972656 14.074219 C 40.703125 13.605469 40.886719 13.371094 40.78125 12.925781 C 40.652344 12.433594 40.703125 12.433594 41.144531 13.03125 C 41.433594 13.398438 41.667969 13.789062 41.667969 13.945312 Z M 10.546875 15.351562 C 10.417969 15.457031 8.332031 14.152344 8.332031 13.945312 C 8.332031 13.890625 8.855469 14.152344 9.503906 14.515625 C 10.128906 14.910156 10.597656 15.273438 10.546875 15.351562 Z M 42.1875 17.59375 C 42.1875 17.722656 42.058594 17.671875 41.925781 17.460938 C 41.796875 17.253906 41.667969 16.941406 41.667969 16.8125 C 41.667969 16.65625 41.796875 16.734375 41.925781 16.941406 C 42.058594 17.148438 42.1875 17.4375 42.1875 17.59375 Z M 8.097656 17.644531 C 7.785156 18.167969 7.734375 18.011719 7.96875 17.332031 C 8.074219 17.097656 8.203125 16.96875 8.253906 17.046875 C 8.332031 17.097656 8.253906 17.382812 8.097656 17.644531 Z M 42.890625 20.121094 C 42.8125 20.328125 42.734375 20.25 42.734375 19.964844 C 42.707031 19.679688 42.785156 19.523438 42.863281 19.625 C 42.941406 19.703125 42.96875 19.9375 42.890625 20.121094 Z M 7.214844 20.382812 C 7.136719 20.589844 7.058594 20.511719 7.058594 20.226562 C 7.03125 19.9375 7.109375 19.78125 7.1875 19.886719 C 7.265625 19.964844 7.292969 20.199219 7.214844 20.382812 Z M 43.152344 21.425781 C 43.074219 21.605469 43.019531 21.476562 43.019531 21.113281 C 43.019531 20.746094 43.074219 20.617188 43.152344 20.773438 C 43.203125 20.957031 43.203125 21.269531 43.152344 21.425781 Z M 6.953125 21.945312 C 6.875 22.128906 6.824219 21.996094 6.824219 21.632812 C 6.824219 21.269531 6.875 21.136719 6.953125 21.292969 C 7.003906 21.476562 7.003906 21.789062 6.953125 21.945312 Z M 43.410156 25.726562 C 43.359375 26.429688 43.332031 25.855469 43.332031 24.5 C 43.332031 23.144531 43.359375 22.570312 43.410156 23.25 C 43.464844 23.953125 43.464844 25.046875 43.410156 25.726562 Z M 6.691406 25.335938 C 6.640625 25.804688 6.589844 25.4375 6.589844 24.5 C 6.589844 23.5625 6.640625 23.195312 6.691406 23.640625 C 6.746094 24.109375 6.746094 24.890625 6.691406 25.335938 Z M 6.953125 27.679688 C 6.875 27.863281 6.824219 27.730469 6.824219 27.367188 C 6.824219 27.003906 6.875 26.871094 6.953125 27.027344 C 7.003906 27.210938 7.003906 27.523438 6.953125 27.679688 Z M 43.152344 28.199219 C 43.074219 28.382812 43.019531 28.253906 43.019531 27.886719 C 43.019531 27.523438 43.074219 27.394531 43.152344 27.550781 C 43.203125 27.730469 43.203125 28.042969 43.152344 28.199219 Z M 7.214844 28.984375 C 7.136719 29.191406 7.058594 29.113281 7.058594 28.828125 C 7.03125 28.539062 7.109375 28.382812 7.1875 28.488281 C 7.265625 28.566406 7.292969 28.800781 7.214844 28.984375 Z M 42.890625 29.242188 C 42.8125 29.453125 42.734375 29.375 42.734375 29.085938 C 42.707031 28.800781 42.785156 28.644531 42.863281 28.75 C 42.941406 28.828125 42.96875 29.0625 42.890625 29.242188 Z M 8.332031 31.929688 C 8.332031 32.058594 8.203125 32.007812 8.074219 31.796875 C 7.941406 31.589844 7.8125 31.277344 7.8125 31.144531 C 7.8125 30.988281 7.941406 31.066406 8.074219 31.277344 C 8.203125 31.484375 8.332031 31.773438 8.332031 31.929688 Z M 41.5625 32.8125 C 41.171875 33.542969 40.832031 34.144531 40.753906 34.144531 C 40.675781 34.144531 40.9375 33.492188 41.328125 32.710938 C 41.71875 31.929688 42.082031 31.328125 42.136719 31.378906 C 42.1875 31.433594 41.925781 32.085938 41.5625 32.8125 Z M 9.375 33.882812 C 9.53125 34.167969 9.582031 34.402344 9.53125 34.402344 C 9.453125 34.402344 9.269531 34.167969 9.113281 33.882812 C 8.957031 33.597656 8.90625 33.363281 8.957031 33.363281 C 9.035156 33.363281 9.21875 33.597656 9.375 33.882812 Z M 39.921875 35.421875 C 39.53125 35.996094 39.140625 36.410156 39.089844 36.359375 C 39.011719 36.253906 40.363281 34.402344 40.546875 34.402344 C 40.597656 34.402344 40.339844 34.875 39.921875 35.421875 Z M 10.574219 35.628906 C 10.964844 36.152344 11.171875 36.488281 10.988281 36.386719 C 10.652344 36.175781 9.53125 34.664062 9.714844 34.664062 C 9.792969 34.664062 10.15625 35.109375 10.574219 35.628906 Z M 15.3125 38.835938 C 15.46875 38.835938 15.625 38.964844 15.625 39.121094 C 15.625 39.304688 15.363281 39.355469 14.972656 39.253906 C 14.347656 39.097656 14.0625 39.433594 14.582031 39.746094 C 14.894531 39.957031 14.921875 40.398438 14.636719 40.398438 C 14.402344 40.398438 13.800781 39.253906 13.800781 38.78125 C 13.800781 38.625 14.035156 38.574219 14.402344 38.679688 C 14.714844 38.757812 15.128906 38.835938 15.3125 38.835938 Z M 36.457031 38.703125 C 36.457031 38.992188 35.652344 40.398438 35.519531 40.398438 C 35.417969 40.398438 35.441406 40.085938 35.519531 39.722656 C 35.675781 39.121094 35.625 39.042969 35.183594 39.175781 C 34.871094 39.253906 34.582031 39.199219 34.503906 39.097656 C 34.425781 38.964844 34.636719 38.808594 34.949219 38.757812 C 35.886719 38.574219 36.457031 38.574219 36.457031 38.703125 Z M 18.75 41.441406 C 18.75 42.039062 18.253906 42.433594 17.683594 42.300781 C 17.082031 42.144531 17.082031 42.171875 17.578125 41 C 17.96875 40.085938 17.996094 40.085938 18.359375 40.554688 C 18.566406 40.816406 18.75 41.234375 18.75 41.441406 Z M 32.527344 41.597656 C 32.265625 41.910156 32.292969 41.9375 32.628906 41.832031 C 33.152344 41.625 33.464844 42.144531 33.074219 42.613281 C 32.578125 43.214844 32.371094 43.082031 31.875 42.066406 C 31.433594 41.15625 31.433594 41.101562 31.902344 40.765625 C 32.316406 40.449219 32.421875 40.449219 32.628906 40.789062 C 32.761719 41.050781 32.734375 41.363281 32.527344 41.597656 Z M 30.886719 41.960938 C 30.910156 42.40625 30.808594 42.746094 30.703125 42.746094 C 30.574219 42.746094 30.46875 42.667969 30.46875 42.535156 C 30.46875 42.433594 30.390625 42.09375 30.3125 41.753906 C 30.207031 41.363281 30.261719 41.179688 30.496094 41.179688 C 30.730469 41.179688 30.859375 41.492188 30.886719 41.960938 Z M 20.417969 41.648438 C 20.625 41.988281 20.128906 42.5625 19.816406 42.378906 C 19.660156 42.277344 19.53125 42.300781 19.53125 42.457031 C 19.53125 42.589844 19.6875 42.769531 19.871094 42.824219 C 20.050781 42.902344 20 42.980469 19.714844 42.980469 C 19.191406 43.003906 18.878906 42.40625 19.113281 41.832031 C 19.269531 41.414062 20.183594 41.285156 20.417969 41.648438 Z M 25.519531 42.484375 C 25.519531 43.628906 25.027344 44.074219 24.347656 43.527344 C 23.828125 43.082031 23.855469 42.902344 24.558594 42.121094 C 25.339844 41.207031 25.519531 41.257812 25.519531 42.484375 Z M 29.894531 42.589844 C 29.792969 43.371094 28.800781 43.316406 28.699219 42.511719 C 28.644531 42.171875 28.75 41.804688 28.933594 41.675781 C 29.402344 41.390625 30 41.9375 29.894531 42.589844 Z M 21.875 41.960938 C 21.875 42.09375 21.691406 42.222656 21.484375 42.222656 C 21.277344 42.222656 21.09375 42.40625 21.09375 42.613281 C 21.09375 42.824219 21.222656 43.003906 21.355469 43.003906 C 21.511719 43.003906 21.613281 43.109375 21.613281 43.265625 C 21.613281 43.394531 21.433594 43.449219 21.222656 43.371094 C 20.832031 43.214844 20.675781 42.199219 21.015625 41.882812 C 21.277344 41.597656 21.875 41.675781 21.875 41.960938 Z M 23.566406 42.746094 C 23.566406 43.160156 23.410156 43.421875 23.074219 43.472656 C 22.449219 43.605469 22.109375 43.03125 22.421875 42.40625 C 22.785156 41.726562 23.566406 41.960938 23.566406 42.746094 Z M 27.03125 42.277344 C 27.5 42.746094 27.421875 43.003906 26.769531 43.03125 C 26.199219 43.082031 26.199219 43.082031 26.796875 43.1875 C 27.265625 43.292969 27.34375 43.371094 27.082031 43.527344 C 26.5625 43.839844 26.042969 43.527344 26.042969 42.902344 C 26.042969 41.988281 26.457031 41.703125 27.03125 42.277344 Z M 27.03125 42.277344 "/>
<path style=" stroke:none;fill-rule:nonzero;fill:rgb(0%,0%,0%);fill-opacity:1;" d="M 17.761719 7.296875 C 17.890625 7.742188 18.125 8.15625 18.28125 8.234375 C 18.722656 8.523438 19.089844 7.898438 18.90625 7.195312 C 18.777344 6.699219 18.566406 6.515625 18.097656 6.515625 C 17.527344 6.515625 17.5 6.566406 17.761719 7.296875 Z M 17.761719 7.296875 "/>
<path style=" stroke:none;fill-rule:nonzero;fill:rgb(0%,0%,0%);fill-opacity:1;" d="M 34.167969 7.609375 C 33.722656 8.054688 33.777344 8.523438 34.269531 8.707031 C 34.714844 8.863281 35.417969 8.472656 35.417969 8.054688 C 35.417969 7.636719 34.480469 7.296875 34.167969 7.609375 Z M 34.167969 7.609375 "/>
<path style=" stroke:none;fill-rule:nonzero;fill:rgb(0%,0%,0%);fill-opacity:1;" d="M 15.183594 7.742188 C 14.738281 7.898438 14.765625 8.601562 15.234375 9.226562 C 15.625 9.746094 16.40625 9.644531 16.40625 9.019531 C 16.40625 8.496094 15.546875 7.585938 15.183594 7.742188 Z M 15.183594 7.742188 "/>
<path style=" stroke:none;fill-rule:nonzero;fill:rgb(0%,0%,0%);fill-opacity:1;" d="M 21.511719 10.035156 C 16.144531 11.390625 11.824219 15.792969 10.546875 21.136719 C 8.722656 28.957031 13.59375 36.90625 21.484375 38.964844 C 26.40625 40.242188 31.667969 38.730469 35.441406 34.953125 C 43.203125 27.183594 40.363281 14.4375 30 10.503906 C 27.785156 9.667969 23.828125 9.460938 21.511719 10.035156 Z M 20.050781 15.402344 L 20.050781 16.96875 L 20.625 16.578125 C 20.9375 16.34375 21.640625 16.160156 22.160156 16.160156 C 24.816406 16.160156 25.808594 19.679688 23.671875 21.476562 C 22.761719 22.257812 21.925781 22.335938 20.832031 21.761719 C 20.128906 21.398438 20.050781 21.398438 20.050781 21.761719 C 20.050781 22.050781 19.871094 22.152344 19.480469 22.101562 C 18.878906 22.023438 18.878906 21.945312 18.800781 17.90625 L 18.722656 13.8125 L 19.402344 13.8125 C 20.027344 13.8125 20.050781 13.867188 20.050781 15.402344 Z M 30.105469 16.628906 C 30.832031 17.203125 31.25 18.035156 31.25 18.871094 C 31.25 19.546875 31.25 19.546875 28.90625 19.546875 C 27.628906 19.546875 26.5625 19.652344 26.5625 19.78125 C 26.5625 20.148438 27.863281 21.113281 28.359375 21.113281 C 28.59375 21.113281 29.089844 20.957031 29.480469 20.746094 C 29.972656 20.484375 30.234375 20.460938 30.441406 20.667969 C 30.886719 21.113281 30.78125 21.320312 29.949219 21.761719 C 28.175781 22.675781 26.042969 21.894531 25.496094 20.09375 C 25.105469 18.792969 25.339844 17.855469 26.300781 16.914062 C 26.925781 16.289062 27.265625 16.160156 28.308594 16.160156 C 29.089844 16.160156 29.765625 16.34375 30.105469 16.628906 Z M 29.949219 25.777344 L 29.949219 28.070312 L 28.722656 28.097656 C 27.265625 28.148438 26.5625 27.628906 26.5625 26.53125 C 26.5625 25.492188 27.449219 24.65625 28.410156 24.863281 C 29.0625 24.996094 29.167969 24.941406 29.167969 24.394531 C 29.167969 23.769531 29.347656 23.457031 29.738281 23.457031 C 29.84375 23.457031 29.949219 24.5 29.949219 25.777344 Z M 19.714844 24.03125 C 19.636719 24.214844 19.089844 25.464844 18.488281 26.765625 C 17.550781 28.828125 17.292969 29.191406 16.769531 29.191406 C 16.042969 29.191406 16.09375 29.035156 17.683594 25.828125 C 18.515625 24.1875 18.878906 23.71875 19.296875 23.71875 C 19.636719 23.71875 19.792969 23.847656 19.714844 24.03125 Z M 15.832031 25.203125 C 15.78125 25.464844 15.363281 25.882812 14.871094 26.117188 L 13.984375 26.558594 L 14.949219 27.003906 C 15.519531 27.289062 15.886719 27.652344 15.886719 27.941406 C 15.886719 28.566406 15.625 28.539062 13.933594 27.707031 C 12.058594 26.765625 12.03125 26.246094 13.878906 25.414062 C 15.519531 24.65625 15.9375 24.605469 15.832031 25.203125 Z M 22.160156 25.046875 C 22.863281 25.414062 22.527344 25.828125 21.667969 25.648438 C 20.78125 25.464844 20.183594 26.039062 20.441406 26.820312 C 20.625 27.472656 21.511719 27.785156 22.003906 27.367188 C 22.265625 27.160156 22.394531 27.160156 22.527344 27.394531 C 22.785156 27.785156 22.1875 28.148438 21.199219 28.148438 C 20.285156 28.148438 19.921875 27.835938 19.660156 26.792969 C 19.53125 26.246094 19.636719 25.933594 20.15625 25.4375 C 20.859375 24.707031 21.355469 24.605469 22.160156 25.046875 Z M 25.339844 25.046875 C 26.066406 25.4375 26.300781 25.777344 26.300781 26.558594 C 26.300781 27.964844 24.453125 28.695312 23.386719 27.707031 C 22.761719 27.160156 22.785156 25.933594 23.4375 25.28125 C 24.035156 24.683594 24.53125 24.628906 25.339844 25.046875 Z M 33.074219 25.28125 C 33.359375 25.570312 33.59375 26.039062 33.59375 26.324219 C 33.59375 26.765625 33.410156 26.847656 32.292969 26.847656 C 31.589844 26.847656 30.988281 26.949219 30.988281 27.105469 C 30.988281 27.417969 32.160156 27.730469 32.527344 27.496094 C 32.683594 27.417969 32.941406 27.417969 33.097656 27.523438 C 33.542969 27.785156 32.839844 28.148438 31.847656 28.148438 C 30.285156 28.148438 29.660156 26.273438 30.886719 25.308594 C 31.746094 24.628906 32.394531 24.605469 33.074219 25.28125 Z M 36.144531 25.414062 C 37.996094 26.273438 37.96875 26.847656 36.042969 27.730469 C 34.324219 28.515625 34.113281 28.539062 34.113281 28.019531 C 34.113281 27.785156 34.53125 27.367188 35.027344 27.082031 L 35.964844 26.53125 L 35.105469 26.089844 C 34.246094 25.671875 33.777344 24.761719 34.425781 24.761719 C 34.609375 24.761719 35.390625 25.046875 36.144531 25.414062 Z M 36.144531 25.414062 "/>
<path style=" stroke:none;fill-rule:nonzero;fill:rgb(0%,0%,0%);fill-opacity:1;" d="M 20.597656 17.878906 C 20 18.660156 19.921875 19.3125 20.339844 20.09375 C 20.964844 21.269531 22.839844 21.136719 23.410156 19.886719 C 24.296875 17.957031 21.875 16.238281 20.597656 17.878906 Z M 20.597656 17.878906 "/>
<path style=" stroke:none;fill-rule:nonzero;fill:rgb(0%,0%,0%);fill-opacity:1;" d="M 27.265625 17.515625 C 26.355469 18.246094 26.640625 18.558594 28.203125 18.558594 C 29.972656 18.582031 30.207031 18.425781 29.558594 17.722656 C 29.035156 17.125 27.917969 17.046875 27.265625 17.515625 Z M 27.265625 17.515625 "/>
<path style=" stroke:none;fill-rule:nonzero;fill:rgb(0%,0%,0%);fill-opacity:1;" d="M 27.449219 26.195312 C 27.316406 26.664062 27.421875 27.027344 27.707031 27.316406 C 28.308594 27.914062 29.035156 27.417969 29.035156 26.429688 C 29.035156 25.804688 28.90625 25.648438 28.332031 25.59375 C 27.761719 25.515625 27.578125 25.648438 27.449219 26.195312 Z M 27.449219 26.195312 "/>
<path style=" stroke:none;fill-rule:nonzero;fill:rgb(0%,0%,0%);fill-opacity:1;" d="M 17.734375 26.351562 C 16.746094 28.460938 16.511719 29.476562 17.160156 28.773438 C 17.734375 28.199219 19.480469 23.980469 19.167969 23.980469 C 18.984375 23.980469 18.332031 25.046875 17.734375 26.351562 Z M 17.734375 26.351562 "/>
<path style=" stroke:none;fill-rule:nonzero;fill:rgb(0%,0%,0%);fill-opacity:1;" d="M 14.011719 25.621094 C 13.308594 25.90625 12.761719 26.324219 12.761719 26.507812 C 12.761719 26.6875 13.332031 27.132812 14.0625 27.496094 C 15.496094 28.226562 15.625 28.253906 15.625 27.886719 C 15.625 27.757812 15.128906 27.394531 14.53125 27.082031 L 13.410156 26.507812 L 14.53125 26.039062 C 15.128906 25.777344 15.625 25.4375 15.625 25.28125 C 15.625 24.941406 15.46875 24.96875 14.011719 25.621094 Z M 14.011719 25.621094 "/>
<path style=" stroke:none;fill-rule:nonzero;fill:rgb(0%,0%,0%);fill-opacity:1;" d="M 23.75 25.960938 C 23.410156 26.558594 23.644531 27.316406 24.269531 27.496094 C 24.949219 27.730469 25.574219 27.160156 25.46875 26.351562 C 25.417969 25.828125 25.234375 25.648438 24.6875 25.59375 C 24.246094 25.542969 23.90625 25.671875 23.75 25.960938 Z M 23.75 25.960938 "/>
<path style=" stroke:none;fill-rule:nonzero;fill:rgb(0%,0%,0%);fill-opacity:1;" d="M 31.171875 25.699219 C 30.78125 26.117188 31.042969 26.324219 31.925781 26.324219 C 32.550781 26.324219 32.8125 26.21875 32.761719 25.984375 C 32.628906 25.648438 31.457031 25.414062 31.171875 25.699219 Z M 31.171875 25.699219 "/>
<path style=" stroke:none;fill-rule:nonzero;fill:rgb(0%,0%,0%);fill-opacity:1;" d="M 34.375 25.253906 C 34.375 25.386719 34.871094 25.75 35.496094 26.011719 L 36.589844 26.507812 L 35.496094 27.082031 C 34.871094 27.394531 34.375 27.757812 34.375 27.886719 C 34.375 28.253906 34.503906 28.226562 35.9375 27.496094 C 37.863281 26.53125 37.761719 26.296875 34.714844 25.097656 C 34.53125 25.019531 34.375 25.097656 34.375 25.253906 Z M 34.375 25.253906 "/>
<path style=" stroke:none;fill-rule:nonzero;fill:rgb(0%,0%,0%);fill-opacity:1;" d="M 17.839844 41.46875 C 17.734375 41.625 17.707031 41.804688 17.785156 41.882812 C 17.96875 42.066406 18.488281 41.726562 18.488281 41.414062 C 18.488281 41.101562 18.046875 41.101562 17.839844 41.46875 Z M 17.839844 41.46875 "/>
<path style=" stroke:none;fill-rule:nonzero;fill:rgb(0%,0%,0%);fill-opacity:1;" d="M 31.902344 41.179688 C 31.824219 41.3125 31.875 41.441406 32.003906 41.441406 C 32.160156 41.441406 32.292969 41.3125 32.292969 41.179688 C 32.292969 41.023438 32.238281 40.921875 32.1875 40.921875 C 32.109375 40.921875 31.980469 41.023438 31.902344 41.179688 Z M 31.902344 41.179688 "/>
<path style=" stroke:none;fill-rule:nonzero;fill:rgb(0%,0%,0%);fill-opacity:1;" d="M 24.480469 42.875 C 24.480469 43.082031 24.609375 43.265625 24.738281 43.265625 C 24.894531 43.265625 25 43.082031 25 42.875 C 25 42.667969 24.894531 42.484375 24.738281 42.484375 C 24.609375 42.484375 24.480469 42.667969 24.480469 42.875 Z M 24.480469 42.875 "/>
<path style=" stroke:none;fill-rule:nonzero;fill:rgb(0%,0%,0%);fill-opacity:1;" d="M 28.957031 42.328125 C 28.984375 42.589844 29.167969 42.769531 29.296875 42.769531 C 29.6875 42.746094 29.609375 42.144531 29.21875 42.015625 C 28.984375 41.9375 28.878906 42.066406 28.957031 42.328125 Z M 28.957031 42.328125 "/>
<path style=" stroke:none;fill-rule:nonzero;fill:rgb(0%,0%,0%);fill-opacity:1;" d="M 22.8125 42.40625 C 22.578125 42.640625 22.628906 43.265625 22.890625 43.265625 C 23.203125 43.265625 23.464844 42.535156 23.203125 42.378906 C 23.074219 42.300781 22.917969 42.300781 22.8125 42.40625 Z M 22.8125 42.40625 "/>
</g>
</svg>
