<?xml version="1.0" standalone="yes"?>
<svg xmlns="http://www.w3.org/2000/svg" width="640" height="640">
<path style="fill:#fffefb; stroke:none;" d="M0 0L0 312L1 312C4.40751 268.822 12.013 227.745 30.1782 188C80.9415 76.9321 192.25 6.18378 313 1L285 0L221 0L0 0z"/>
<path style="fill:#f3ab79; stroke:none;" d="M280 5C274.386 3.65179 255.486 4.98358 252 10C249.298 9.30286 245.512 8.76001 245 12L236 14L232 15C227.714 14.7477 222.578 15.3054 220 19C213.999 18.1124 202.252 21.6648 199 27L196 26L194 29L181 33L181 35L179 36L176 35L175 38C170.392 37.9654 166.301 39.9447 164 44L159 47C153.96 47.168 148.448 50.5649 146 55C139.714 55.5246 131.839 61.4088 129 67C120.657 68.061 103.307 82.9027 101 91C92.8415 92.3931 76.2269 110.827 75 119C70.5578 120.385 68.4068 124.403 65.6505 128C59.6164 135.874 47.3397 148.807 47 159L44 164C40.3841 166.053 38.9718 168.876 39 173L37 173L38 175L35 176L36 179L35 181L33 181L34 183C30.1184 185.347 28.4783 189.574 29 194C23.9385 197.425 20.1369 208.081 21 214L20 217L19 220C14.8231 222.914 13.0587 231.195 14 236C10.885 238.516 10.5658 243.22 9.62654 247C7.20841 256.733 2.84545 270.091 5 280L2.31019 292.039L0 329L1 329L1 312L2 312L5.05864 370.424L10 389C8.70715 394.174 10.7005 405.527 15 409L16 412L18 419L21 428C20.6773 433.032 22.6982 440.065 27 443C25.7496 446.751 27.8707 449.574 30 450C29.1902 456.902 36.9516 472.515 43 476C43.1007 480.802 46.2756 487.312 51 489C51.3494 504.148 72.3072 519.794 80 532L83 532C84.6345 541.572 100.075 552.378 107 558.961C110.068 561.878 112.778 564.46 117 565L123 570C123.718 573.381 125.668 574.495 129 575L135 579L138 581L139 582L138 584L156 593C158.376 597.19 163.222 599.9 168 600C171.333 605.449 181.69 610.366 188 610L195 613C197.189 616.312 200.122 617.225 204 617C207.704 622.035 221.013 626.244 227 625L230 626L234 627L237 628C242.922 635.33 268.923 637.468 278 636C278.761 640.54 297.605 640 302 640C321.773 640 341.139 639.251 360.588 637.838C366.028 637.443 380.803 637.405 384 633L388 632C391.362 632.744 399.351 633.105 400 629L404 628L408 627C413.526 627.753 423.555 625.587 427 621L432 619L435 620L445 614C451.313 614.139 462.705 609.537 466 604L468 603L470 604L470 602C475.359 602.037 481.356 598.694 484 594L486 593C491.792 592.52 502.063 586.715 504 581C510.303 580.473 517.272 574.597 520 569L526 564L534 560L534 557C541.212 555.769 555.769 541.212 557 534L558 533L560 534L569 520C574.674 518.133 580.512 509.838 581 504C586.939 501.986 593.86 490.072 594 484L597 479L601 472L603 472L602 470L604 470L603 468L605 468L604 466C609.526 462.855 614.362 451.241 614 445C617.696 442.47 618.387 438.283 618 434L620 435L619 432L623 427L622 424L624 418L626 412C632.963 406.375 636.846 380.488 635 372C638.852 368.652 637.281 361.586 638.544 356.91C643.383 338.989 640 316.548 640 298C640 292.279 640.565 280.984 636 277C638.414 266.415 633.644 251.275 630.552 241.015C629.459 237.388 628.979 232.404 626 230L625 227C625.781 222.125 624.087 215.066 620 212C620.311 206.687 617.691 197.86 613 195L614 192L612 193L613 190L612 188L610 188C610.366 181.69 605.449 171.333 600 168L597 163L596 161L593 156C592.907 152.072 591.442 149.89 588 148C587.894 143.389 585.471 139.472 581 138L579 135L575 129C574.261 124.094 569.797 118.564 565 117C563.374 106.994 549.059 96.6733 541.911 89.8264C538.788 86.8353 536.309 83.7358 532 83L531 82L532 80L525 77C523.469 69.1938 501.839 54.5572 494 54L489 51L489 48L488 48C476.852 43.4843 464.645 30.2659 452 31L452 29L450 30L450 28L448 29L443 27L436 22L433 23L428 21L421 19C418.361 15.1474 413.413 14.2903 409 15C406.431 11.8083 401.842 11.4984 398 10.5255C389.125 8.27826 377.066 3.70941 368 6L351 2.28552L300.09 2.07642L280 5z"/>
<path style="fill:#fffefb; stroke:none;" d="M329 0L329 1C365.612 2.57172 401.747 9.50146 436 22.811C448.331 27.6025 460.271 33.3334 472 39.4243C477.425 42.2415 482.919 47.2737 489 48C493.407 54.8708 504.427 59.4653 511 64.3742C528.932 77.7656 545.956 93.0153 560.572 109.999C565.207 115.385 573.105 122.05 575 129C585.146 137.384 591.956 151.723 598.421 163C613.621 189.512 625.054 218.243 632.116 248C635.167 260.856 635.948 274.214 639 287L640 287L640 0L329 0z"/>
<path style="fill:#c1684c; stroke:none;" d="M313 1L313 2L317 2L313 1M318 1L318 2L329 2L318 1M297 2L298 3L297 2M287 3L288 4L287 3M351 3L352 4L351 3M278.667 4.33331L279.333 4.66669L278.667 4.33331M362 4L363 5L362 4M368 5L369 6L368 5M265 6L266 7L265 6M255 8L256 9L255 8M251 9L252 10L251 9M389 9L390 10L389 9M243.667 11.3333L244.333 11.6667L243.667 11.3333M235 13L236 14L235 13M231 14L232 15L231 14M409 14L410 15L409 14M228 15L229 16L228 15M219 18L220 19L219 18M421.667 18.3333L422.333 18.6667L421.667 18.3333M428 20L429 21L428 20M208 22L209 23L208 22M433 22L434 23L433 22M436 23L437 24L436 23M198 26L199 27L198 26M443 26L444 27L443 26M195 27L196 28L195 27M193 28L194 29L193 28M448 28L449 29L448 28M450 29L451 30L450 29M452 30L453 31L452 30M182 33L183 34L182 33M180 34L181 35L180 34M178 35L179 36L178 35M174 37L175 38L174 37M163 43L164 44L163 43M158 46L159 47L158 46M489 50L490 51L489 50M147 53L148 54L147 53M494 53L495 54L494 53M145 54L146 55L145 54M500 57L501 58L500 57M138 59L139 60L138 59M504 60L505 61L504 60M128 66L129 67L128 66M512 66L513 67L512 66M515 68L516 69L515 68M525 76L526 77L525 76M531 81L532 82L531 81M109 82L110 83L109 82M532 82L533 83L532 82M533 83L535 85L533 83M100 90L101 91L100 90M90 100L91 101L90 100M232 106L232 107L432 107L413 106L373 106L232 106M439 106L439 107L464 107L439 106M165 171L230 108C223.699 107.867 216.245 118.755 212 123C196.685 138.315 177.467 153.302 165 171z"/>
<path style="fill:#050504; stroke:none;" d="M230 107.742C223.764 110.125 218.61 117.39 214 122L181 155C176.192 159.808 168.006 165.484 165.603 172C163.135 178.695 165 188.91 165 196L165 248L165 425L165 504C165 510.734 162.028 527.11 166.742 532.347C170.779 536.832 180.615 535 186 535L238 535L403 535L450 535C456.504 535 465.871 536.697 471.981 534.258C477.66 531.99 477 526.067 477 521L477 483L477 323L477 169L477 127C477 122.195 478.427 114.49 475.821 110.228C473.017 105.643 465.532 107 461 107L419 107L287 107L248 107C242.514 107 235.196 105.757 230 107.742z"/>
<path style="fill:#c1684c; stroke:none;" d="M473 107L474 108L473 107M557 107L558 108L557 107M475 108L476 109L475 108M82 109L83 110L82 109M476 110L477 111L476 110M565 116L566 117L565 116M74 118L75 119L74 118z"/>
<path style="fill:#87ccc6; stroke:none;" d="M239.667 120.333L240.333 120.667L239.667 120.333z"/>
<path style="fill:#c1684c; stroke:none;" d="M241 120L241 121L461 121L440 120L396 120L241 120z"/>
<path style="fill:#87ccc6; stroke:none;" d="M461.667 120.333L462.333 120.667L461.667 120.333z"/>
<path style="fill:#c1684c; stroke:none;" d="M463 120L464 121L463 120M211 121L212 122L211 121z"/>
<path style="fill:#fffefb; stroke:none;" d="M239 121L239 163C239 168.343 240.385 175.666 235.852 179.566C231.532 183.283 224.275 182 219 182C205.803 182 192.125 180.905 179 182L179 521L463 521L463 121L239 121z"/>
<path style="fill:#f3ab79; stroke:none;" d="M463.333 121.667L463.667 122.333L463.333 121.667z"/>
<path style="fill:#87ccc6; stroke:none;" d="M463 123L463 208L464 208L464 149L463 123z"/>
<path style="fill:#c1684c; stroke:none;" d="M187 168L225 131L225 168L226 168L226 130C212.699 136.203 195.44 156.018 187 168M576 130L577 131L576 130z"/>
<path style="fill:#fffefb; stroke:none;" d="M224 131L188 168C199.102 165.939 213.982 165.377 225 168C225 157.351 228.111 140.798 224 131z"/>
<path style="fill:#c1684c; stroke:none;" d="M579 134L580 135L579 134M581 137L582 138L581 137M59 138L60 139L59 138M588 147L589 148L588 147z"/>
<path style="fill:#f3ab79; stroke:none;" d="M365 153L366 154L365 153z"/>
<path style="fill:#87ccc6; stroke:none;" d="M366.667 153.333L367.333 153.667L366.667 153.333z"/>
<path style="fill:#c1684c; stroke:none;" d="M368 153L368 154L372 154L368 153z"/>
<path style="fill:#87ccc6; stroke:none;" d="M372.667 153.333L373.333 153.667L372.667 153.333z"/>
<path style="fill:#f3ab79; stroke:none;" d="M360 154L361 155L360 154z"/>
<path style="fill:#c1684c; stroke:none;" d="M361.667 154.333L362.333 154.667L361.667 154.333z"/>
<path style="fill:#050504; stroke:none;" d="M363 154.468C323.793 161.864 337.07 222.419 376 214.904C415.461 207.287 402.283 147.057 363 154.468z"/>
<path style="fill:#c1684c; stroke:none;" d="M376.667 154.333L377.333 154.667L376.667 154.333z"/>
<path style="fill:#87ccc6; stroke:none;" d="M378 154L379 155L378 154z"/>
<path style="fill:#f3ab79; stroke:none;" d="M357 155L358 156L357 155z"/>
<path style="fill:#c1684c; stroke:none;" d="M358 155L359 156L358 155M380 155L381 156L380 155z"/>
<path style="fill:#87ccc6; stroke:none;" d="M381 155L382 156L381 155z"/>
<path style="fill:#c1684c; stroke:none;" d="M593 155L594 156L593 155z"/>
<path style="fill:#f3ab79; stroke:none;" d="M355 156L356 157L355 156z"/>
<path style="fill:#c1684c; stroke:none;" d="M356 156L357 157L356 156M382 156L383 157L382 156z"/>
<path style="fill:#87ccc6; stroke:none;" d="M383 156L384 157L383 156z"/>
<path style="fill:#f3ab79; stroke:none;" d="M353 157L354 158L353 157z"/>
<path style="fill:#c1684c; stroke:none;" d="M354 157L355 158L354 157M384 157L385 158L384 157z"/>
<path style="fill:#f3ab79; stroke:none;" d="M385 157L386 158L385 157z"/>
<path style="fill:#c1684c; stroke:none;" d="M594 157L595 158L594 157M46 158L47 159L46 158M352 158L353 159L352 158M386 158L387 159L386 158M351 159L352 160L351 159z"/>
<path style="fill:#f3ab79; stroke:none;" d="M388 159L389 160L388 159z"/>
<path style="fill:#87ccc6; stroke:none;" d="M349 160L350 161L349 160M389 160L390 161L389 160z"/>
<path style="fill:#c1684c; stroke:none;" d="M596 160L597 161L596 160M171 161L172 162L171 161z"/>
<path style="fill:#87ccc6; stroke:none;" d="M348 161L349 162L348 161z"/>
<path style="fill:#c1684c; stroke:none;" d="M390 161L391 162L390 161z"/>
<path style="fill:#87ccc6; stroke:none;" d="M347 162L348 163L347 162z"/>
<path style="fill:#c1684c; stroke:none;" d="M391 162L392 163L391 162M597 162L598 163L597 162M43 163L44 164L43 163z"/>
<path style="fill:#f3ab79; stroke:none;" d="M346 163L347 164L346 163z"/>
<path style="fill:#c1684c; stroke:none;" d="M392 163L393 164L392 163z"/>
<path style="fill:#87ccc6; stroke:none;" d="M345 164L346 165L345 164M393 164L394 165L393 164M394 165L395 166L394 165z"/>
<path style="fill:#c1684c; stroke:none;" d="M344 166L345 167L344 166z"/>
<path style="fill:#f3ab79; stroke:none;" d="M395 166L396 167L395 166M190 167L190 168L224 168L190 167M343 167L344 168L343 167z"/>
<path style="fill:#c1684c; stroke:none;" d="M365 167L366 168L365 167z"/>
<path style="fill:#f3ab79; stroke:none;" d="M360 172L357 175L354 181C351.597 183.1 351.597 185.9 354 188L356 193C356.817 197.741 360.183 200.452 365 200C365.873 204.367 377.978 199.745 379 200L380 199L379 197L384 192C386.774 190.186 389.182 181.697 385 181C385.658 169.452 366.309 161.089 360 172z"/>
<path style="fill:#c1684c; stroke:none;" d="M373 167L374 168L373 167M395 167L396 168L395 167M600 167L601 168L600 167z"/>
<path style="fill:#f3ab79; stroke:none;" d="M342 168L343 169L342 168z"/>
<path style="fill:#c1684c; stroke:none;" d="M362 168L363 169L362 168M376 168L377 169L376 168z"/>
<path style="fill:#87ccc6; stroke:none;" d="M396 168L397 169L396 168z"/>
<path style="fill:#c1684c; stroke:none;" d="M342 169L343 170L342 169M360 169L361 170L360 169M378 169L379 170L378 169M396 169L397 170L396 169z"/>
<path style="fill:#87ccc6; stroke:none;" d="M341 170L342 171L341 170z"/>
<path style="fill:#c1684c; stroke:none;" d="M359 170L360 171L359 170M380 170L381 171L380 170M397 170L398 171L397 170M341 171L342 172L341 171M357 171L358 172L357 171z"/>
<path style="fill:#fffefb; stroke:none;" d="M359 171L360 172L359 171M379 171L380 172L379 171z"/>
<path style="fill:#c1684c; stroke:none;" d="M381 171L382 172L381 171M38 172L39 173L38 172M164 172L164 530L165 530L165 277L165 204L164 172z"/>
<path style="fill:#f3ab79; stroke:none;" d="M340 172L341 173L340 172z"/>
<path style="fill:#c1684c; stroke:none;" d="M356 172L357 173L356 172z"/>
<path style="fill:#fffefb; stroke:none;" d="M358 172L357 174L358 172z"/>
<path style="fill:#c1684c; stroke:none;" d="M382 172L383 173L382 172z"/>
<path style="fill:#87ccc6; stroke:none;" d="M398 172L399 173L398 172z"/>
<path style="fill:#c1684c; stroke:none;" d="M340 173L341 174L340 173z"/>
<path style="fill:#fffefb; stroke:none;" d="M381 173L382 174L381 173z"/>
<path style="fill:#c1684c; stroke:none;" d="M383 173L384 174L383 173M398 173L399 174L398 173M37 174L38 175L37 174M355 174L354 176L355 174z"/>
<path style="fill:#fffefb; stroke:none;" d="M356 174L357 175L356 174z"/>
<path style="fill:#f3ab79; stroke:none;" d="M399 174L400 175L399 174M339 175L340 176L339 175z"/>
<path style="fill:#fffefb; stroke:none;" d="M355 175L356 176L355 175z"/>
<path style="fill:#c1684c; stroke:none;" d="M384 175L385 176L384 175z"/>
<path style="fill:#87ccc6; stroke:none;" d="M399 175L400 176L399 175z"/>
<path style="fill:#c1684c; stroke:none;" d="M604 175L605 176L604 175M238 176L239 177L238 176M339.333 176.667L339.667 177.333L339.333 176.667M385.333 176.667L385.667 177.333L385.333 176.667M399 176L400 177L399 176z"/>
<path style="fill:#87ccc6; stroke:none;" d="M238 177L239 178L238 177z"/>
<path style="fill:#c1684c; stroke:none;" d="M353 177L354 178L353 177M35 178L36 179L35 178M237 178L238 179L237 178M236 179L237 180L236 179z"/>
<path style="fill:#f3ab79; stroke:none;" d="M338 179L338 182L339 182L338 179z"/>
<path style="fill:#fffefb; stroke:none;" d="M385.333 179.667L385.667 180.333L385.333 179.667z"/>
<path style="fill:#c1684c; stroke:none;" d="M386 179L387 180L386 179z"/>
<path style="fill:#f3ab79; stroke:none;" d="M400 179L401 180L400 179z"/>
<path style="fill:#c1684c; stroke:none;" d="M34 180L35 181L34 180M235 180L236 181L235 180M352 180L353 181L352 180z"/>
<path style="fill:#fffefb; stroke:none;" d="M353 180L354 181L353 180z"/>
<path style="fill:#c1684c; stroke:none;" d="M400 180L400 183L401 183L400 180z"/>
<path style="fill:#87ccc6; stroke:none;" d="M178 181L179 182L178 181z"/>
<path style="fill:#f3ab79; stroke:none;" d="M179 181L179 182L183 182L179 181M184 181L184 182L232 182C219.586 176.791 197.526 181 184 181z"/>
<path style="fill:#87ccc6; stroke:none;" d="M232 181L233 182L232 181z"/>
<path style="fill:#f3ab79; stroke:none;" d="M233 181L234 182L233 181z"/>
<path style="fill:#c1684c; stroke:none;" d="M33 182L34 183L33 182z"/>
<path style="fill:#f3ab79; stroke:none;" d="M178 182L178 521L179 521L179 281L179 212L178 182z"/>
<path style="fill:#c1684c; stroke:none;" d="M338 182L338 187L339 187L338 182M400 186L400 189L401 189L400 186z"/>
<path style="fill:#87ccc6; stroke:none;" d="M338 187L339 188L338 187z"/>
<path style="fill:#c1684c; stroke:none;" d="M610 187L611 188L610 187z"/>
<path style="fill:#f3ab79; stroke:none;" d="M338.333 188.667L338.667 189.333L338.333 188.667z"/>
<path style="fill:#c1684c; stroke:none;" d="M352.333 188.667L352.667 189.333L352.333 188.667z"/>
<path style="fill:#fffefb; stroke:none;" d="M353 188L354 189L353 188z"/>
<path style="fill:#c1684c; stroke:none;" d="M386 189L387 190L386 189z"/>
<path style="fill:#87ccc6; stroke:none;" d="M400 189L401 190L400 189z"/>
<path style="fill:#c1684c; stroke:none;" d="M611 189L612 190L611 189z"/>
<path style="fill:#f3ab79; stroke:none;" d="M400 190L401 191L400 190z"/>
<path style="fill:#c1684c; stroke:none;" d="M29 191L30 192L29 191M612.333 191.667L612.667 192.333L612.333 191.667M339 192L340 193L339 192z"/>
<path style="fill:#fffefb; stroke:none;" d="M384 192L385 193L384 192z"/>
<path style="fill:#c1684c; stroke:none;" d="M385 192L386 193L385 192M28 193L29 194L28 193z"/>
<path style="fill:#87ccc6; stroke:none;" d="M339 193L340 194L339 193z"/>
<path style="fill:#c1684c; stroke:none;" d="M354 193L355 194L354 193z"/>
<path style="fill:#fffefb; stroke:none;" d="M355 193L356 194L355 193z"/>
<path style="fill:#c1684c; stroke:none;" d="M399 193L400 194L399 193z"/>
<path style="fill:#f3ab79; stroke:none;" d="M399 194L400 195L399 194z"/>
<path style="fill:#c1684c; stroke:none;" d="M613 194L614 195L613 194M340 195L341 196L340 195M355 195L356 196L355 195M383 195L384 196L383 195z"/>
<path style="fill:#f3ab79; stroke:none;" d="M340 196L341 197L340 196z"/>
<path style="fill:#c1684c; stroke:none;" d="M356 196L357 197L356 196z"/>
<path style="fill:#fffefb; stroke:none;" d="M381 196L379 197L379 198L381 196z"/>
<path style="fill:#c1684c; stroke:none;" d="M382 196L383 197L382 196M398 196L399 197L398 196M341 197L342 198L341 197M357 197L358 198L357 197z"/>
<path style="fill:#fffefb; stroke:none;" d="M359 197L360 198L359 197z"/>
<path style="fill:#c1684c; stroke:none;" d="M381 197L382 198L381 197z"/>
<path style="fill:#87ccc6; stroke:none;" d="M341 198L342 199L341 198z"/>
<path style="fill:#c1684c; stroke:none;" d="M358 198L359 199L358 198M380 198L381 199L380 198M397 198L398 199L397 198z"/>
<path style="fill:#fffefb; stroke:none;" d="M377 199L378 200L377 199z"/>
<path style="fill:#c1684c; stroke:none;" d="M379 199L380 200L379 199z"/>
<path style="fill:#f3ab79; stroke:none;" d="M342 200L343 201L342 200z"/>
<path style="fill:#c1684c; stroke:none;" d="M361 200L362 201L361 200z"/>
<path style="fill:#fffefb; stroke:none;" d="M364 200L365 201L364 200z"/>
<path style="fill:#c1684c; stroke:none;" d="M377 200L378 201L377 200M396 200L397 201L396 200M477 200L477 208L478 208L477 200M343 201L344 202L343 201M364 201L365 202L364 201z"/>
<path style="fill:#fffefb; stroke:none;" d="M367 201L367 202L372 202L367 201z"/>
<path style="fill:#c1684c; stroke:none;" d="M374.667 201.333L375.333 201.667L374.667 201.333M395 201L396 202L395 201z"/>
<path style="fill:#f3ab79; stroke:none;" d="M395 202L396 203L395 202z"/>
<path style="fill:#87ccc6; stroke:none;" d="M344 203L345 204L344 203z"/>
<path style="fill:#c1684c; stroke:none;" d="M394 203L395 204L394 203M345 204L346 205L345 204M393 204L394 205L393 204M346 205L347 206L346 205M392 205L393 206L392 205M347 206L348 207L347 206M348 207L349 208L348 207M390 207L391 208L390 207M349 208L350 209L349 208M389 208L390 209L389 208z"/>
<path style="fill:#f3ab79; stroke:none;" d="M463.333 208.667L463.667 209.333L463.333 208.667z"/>
<path style="fill:#87ccc6; stroke:none;" d="M350 209L351 210L350 209z"/>
<path style="fill:#c1684c; stroke:none;" d="M388 209L389 210L388 209M386 210L387 211L386 210z"/>
<path style="fill:#f3ab79; stroke:none;" d="M387 210L388 211L387 210z"/>
<path style="fill:#87ccc6; stroke:none;" d="M463 210L463 218L464 218L463 210M353 211L354 212L353 211z"/>
<path style="fill:#c1684c; stroke:none;" d="M385 211L386 212L385 211M620 211L621 212L620 211M355 212L356 213L355 212M383 212L384 213L383 212M20 213L21 214L20 213z"/>
<path style="fill:#f3ab79; stroke:none;" d="M352 213L353 214L352 213z"/>
<path style="fill:#87ccc6; stroke:none;" d="M357 213L358 214L357 213z"/>
<path style="fill:#c1684c; stroke:none;" d="M358 213L359 214L358 213M381 213L382 214L381 213z"/>
<path style="fill:#f3ab79; stroke:none;" d="M382 213L383 214L382 213M359 214L360 215L359 214z"/>
<path style="fill:#c1684c; stroke:none;" d="M360.667 214.333L361.333 214.667L360.667 214.333M378 214L379 215L378 214z"/>
<path style="fill:#f3ab79; stroke:none;" d="M379 214L380 215L379 214M363 215L364 216L363 215z"/>
<path style="fill:#87ccc6; stroke:none;" d="M364 215L365 216L364 215z"/>
<path style="fill:#c1684c; stroke:none;" d="M365.667 215.333L366.333 215.667L365.667 215.333M372.667 215.333L373.333 215.667L372.667 215.333z"/>
<path style="fill:#87ccc6; stroke:none;" d="M374.667 215.333L375.333 215.667L374.667 215.333z"/>
<path style="fill:#c1684c; stroke:none;" d="M19 216L20 217L19 216z"/>
<path style="fill:#f3ab79; stroke:none;" d="M348.667 216.333L349.333 216.667L348.667 216.333M389 216L390 217L389 216z"/>
<path style="fill:#87ccc6; stroke:none;" d="M390 216L391 217L390 216z"/>
<path style="fill:#f3ab79; stroke:none;" d="M391 216L392 217L391 216M344 217L345 218L344 217z"/>
<path style="fill:#c1684c; stroke:none;" d="M345 217L346 218L345 217z"/>
<path style="fill:#050504; stroke:none;" d="M346 217.617C330.02 221.546 316.989 237.539 313.239 253C311.878 258.613 309.844 268.417 316.059 271.821C322.902 275.569 336.338 273 344 273L397 273C404.594 273 414.619 274.713 421.906 272.427C428.365 270.401 427.499 263.325 426.844 258C425.268 245.183 418.107 233.472 408 225.518C403.214 221.751 393.54 214.615 387.133 218.183C379.848 222.24 378.836 233.061 368 231.492C358.266 230.082 355.852 215.195 346 217.617z"/>
<path style="fill:#87ccc6; stroke:none;" d="M352 217L353 218L352 217z"/>
<path style="fill:#f3ab79; stroke:none;" d="M386 217L387 218L386 217z"/>
<path style="fill:#c1684c; stroke:none;" d="M387 217L388 218L387 217M393 217L394 218L393 217z"/>
<path style="fill:#f3ab79; stroke:none;" d="M394 217L395 218L394 217z"/>
<path style="fill:#87ccc6; stroke:none;" d="M342 218L343 219L342 218z"/>
<path style="fill:#c1684c; stroke:none;" d="M343 218L344 219L343 218M353 218L354 219L353 218M385 218L386 219L385 218z"/>
<path style="fill:#87ccc6; stroke:none;" d="M396 218L397 219L396 218z"/>
<path style="fill:#f3ab79; stroke:none;" d="M463 218L464 219L463 218z"/>
<path style="fill:#c1684c; stroke:none;" d="M18 219L19 220L18 219M340 219L341 220L340 219M354 219L355 220L354 219z"/>
<path style="fill:#87ccc6; stroke:none;" d="M384 219L385 220L384 219z"/>
<path style="fill:#c1684c; stroke:none;" d="M398 219L399 220L398 219z"/>
<path style="fill:#87ccc6; stroke:none;" d="M463 219L463 384L464 384L464 268C464 254.223 468.306 231.645 463 219M338 220L339 221L338 220z"/>
<path style="fill:#c1684c; stroke:none;" d="M339 220L340 221L339 220z"/>
<path style="fill:#f3ab79; stroke:none;" d="M355 220L356 221L355 220z"/>
<path style="fill:#c1684c; stroke:none;" d="M400 220L401 221L400 220z"/>
<path style="fill:#f3ab79; stroke:none;" d="M401 220L402 221L401 220z"/>
<path style="fill:#87ccc6; stroke:none;" d="M336 221L337 222L336 221z"/>
<path style="fill:#c1684c; stroke:none;" d="M337 221L338 222L337 221M355 221L356 222L355 221z"/>
<path style="fill:#f3ab79; stroke:none;" d="M383 221L384 222L383 221z"/>
<path style="fill:#87ccc6; stroke:none;" d="M402 221L403 222L402 221z"/>
<path style="fill:#c1684c; stroke:none;" d="M335 222L336 223L335 222M383 222L384 223L383 222M403 222L404 223L403 222z"/>
<path style="fill:#f3ab79; stroke:none;" d="M404 222L405 223L404 222M333 223L334 224L333 223z"/>
<path style="fill:#87ccc6; stroke:none;" d="M356 223L357 224L356 223z"/>
<path style="fill:#c1684c; stroke:none;" d="M405 223L406 224L405 223M332 224L333 225L332 224M382 224L383 225L382 224M406 224L407 225L406 224z"/>
<path style="fill:#f3ab79; stroke:none;" d="M330 225L331 226L330 225z"/>
<path style="fill:#c1684c; stroke:none;" d="M331 225L332 226L331 225M357 225L358 226L357 225M381 225L382 226L381 225z"/>
<path style="fill:#87ccc6; stroke:none;" d="M408 225L409 226L408 225M329 226L330 227L329 226z"/>
<path style="fill:#c1684c; stroke:none;" d="M358 226L359 227L358 226z"/>
<path style="fill:#87ccc6; stroke:none;" d="M380 226L381 227L380 226z"/>
<path style="fill:#c1684c; stroke:none;" d="M409 226L410 227L409 226M625 226L626 227L625 226M328 227L329 228L328 227M359 227L360 228L359 227z"/>
<path style="fill:#87ccc6; stroke:none;" d="M379 227L380 228L379 227z"/>
<path style="fill:#c1684c; stroke:none;" d="M410 227L411 228L410 227M327 228L328 229L327 228M360 228L361 229L360 228M378 228L379 229L378 228M411 228L412 229L411 228M326 229L327 230L326 229M361 229L362 230L361 229z"/>
<path style="fill:#87ccc6; stroke:none;" d="M362 229L363 230L362 229z"/>
<path style="fill:#f3ab79; stroke:none;" d="M376 229L377 230L376 229z"/>
<path style="fill:#c1684c; stroke:none;" d="M377 229L378 230L377 229M412 229L413 230L412 229M626 229L627 230L626 229M325 230L326 231L325 230M363 230L364 231L363 230z"/>
<path style="fill:#87ccc6; stroke:none;" d="M364 230L365 231L364 230z"/>
<path style="fill:#f3ab79; stroke:none;" d="M374 230L375 231L374 230z"/>
<path style="fill:#c1684c; stroke:none;" d="M375 230L376 231L375 230M413 230L414 231L413 230z"/>
<path style="fill:#87ccc6; stroke:none;" d="M324 231L325 232L324 231z"/>
<path style="fill:#c1684c; stroke:none;" d="M367.667 231.333L368.333 231.667L367.667 231.333z"/>
<path style="fill:#87ccc6; stroke:none;" d="M369.667 231.333L370.333 231.667L369.667 231.333z"/>
<path style="fill:#c1684c; stroke:none;" d="M371.667 231.333L372.333 231.667L371.667 231.333M414 231L415 232L414 231z"/>
<path style="fill:#87ccc6; stroke:none;" d="M323 232L324 233L323 232z"/>
<path style="fill:#c1684c; stroke:none;" d="M344 232L345 233L344 232z"/>
<path style="fill:#87ccc6; stroke:none;" d="M326 260L370 259L413 260L414 259C410.656 247.446 404.841 236.555 393 232L384 243C377.62 242.212 371.771 245.809 365 244.532C357.036 243.03 352.723 235.264 345.83 233.443C335.532 230.723 326.345 252.472 326 260z"/>
<path style="fill:#c1684c; stroke:none;" d="M415 232L416 233L415 232z"/>
<path style="fill:#f3ab79; stroke:none;" d="M322 233L323 234L322 233z"/>
<path style="fill:#fffefb; stroke:none;" d="M345 233L346 234L345 233z"/>
<path style="fill:#c1684c; stroke:none;" d="M396 233L397 234L396 233z"/>
<path style="fill:#87ccc6; stroke:none;" d="M416 233L417 234L416 233z"/>
<path style="fill:#c1684c; stroke:none;" d="M322 234L323 235L322 234M341 234L342 235L341 234M391 234L392 235L391 234z"/>
<path style="fill:#f3ab79; stroke:none;" d="M417 234L418 235L417 234z"/>
<path style="fill:#c1684c; stroke:none;" d="M13 235L14 236L13 235M321 235L322 236L321 235M348 235L349 236L348 235M417 235L418 236L417 235M320 236L321 237L320 236M349 236L350 237L349 236M400 236L401 237L400 236M418 236L419 237L418 236M628 236L629 237L628 236M337 237L338 238L337 237M350 237L351 238L350 237z"/>
<path style="fill:#f3ab79; stroke:none;" d="M419 237L420 238L419 237z"/>
<path style="fill:#c1684c; stroke:none;" d="M319 238L320 239L319 238M336 238L337 239L336 238M387 238L388 239L387 238z"/>
<path style="fill:#f3ab79; stroke:none;" d="M318 239L319 240L318 239z"/>
<path style="fill:#c1684c; stroke:none;" d="M335 239L336 240L335 239M386 239L387 240L386 239M420 239L421 240L420 239z"/>
<path style="fill:#f3ab79; stroke:none;" d="M315 240L316 241L315 240z"/>
<path style="fill:#c1684c; stroke:none;" d="M334 240L335 241L334 240M354 240L355 241L354 240z"/>
<path style="fill:#f3ab79; stroke:none;" d="M421 240L422 241L421 240z"/>
<path style="fill:#c1684c; stroke:none;" d="M317 241L318 242L317 241M333 241L334 242L333 241M383 241L384 242L383 241M421 241L422 242L421 241z"/>
<path style="fill:#f3ab79; stroke:none;" d="M316 242L317 243L316 242z"/>
<path style="fill:#fffefb; stroke:none;" d="M383 242L384 243L383 242z"/>
<path style="fill:#c1684c; stroke:none;" d="M406 242L407 243L406 242z"/>
<path style="fill:#f3ab79; stroke:none;" d="M422 242L423 243L422 242z"/>
<path style="fill:#c1684c; stroke:none;" d="M316 243L317 244L316 243M378 243L379 244L378 243M422 243L423 244L422 243M331 244L332 245L331 244M364 244L365 245L364 244M374.667 244.333L375.333 244.667L374.667 244.333z"/>
<path style="fill:#f3ab79; stroke:none;" d="M423 244L424 245L423 244z"/>
<path style="fill:#87ccc6; stroke:none;" d="M315 245L316 246L315 245z"/>
<path style="fill:#c1684c; stroke:none;" d="M408 245L409 246L408 245M423 245L424 246L423 245M315 246L316 247L315 246z"/>
<path style="fill:#f3ab79; stroke:none;" d="M314 247L315 248L314 247z"/>
<path style="fill:#c1684c; stroke:none;" d="M329 247L330 248L329 247z"/>
<path style="fill:#f3ab79; stroke:none;" d="M424 247L425 248L424 247z"/>
<path style="fill:#c1684c; stroke:none;" d="M314 248L315 249L314 248M328 249L329 250L328 249z"/>
<path style="fill:#f3ab79; stroke:none;" d="M425 249L426 250L425 249M313 250L314 251L313 250z"/>
<path style="fill:#c1684c; stroke:none;" d="M425 250L426 251L425 250M313 251L314 252L313 251M411 251L412 252L411 251z"/>
<path style="fill:#f3ab79; stroke:none;" d="M426 253L427 254L426 253z"/>
<path style="fill:#87ccc6; stroke:none;" d="M312 254L313 255L312 254z"/>
<path style="fill:#c1684c; stroke:none;" d="M326 254L327 255L326 254M426.333 254.667L426.667 255.333L426.333 254.667M312.333 255.667L312.667 256.333L312.333 255.667M413 257L414 258L413 257M325 258L326 259L325 258z"/>
<path style="fill:#f3ab79; stroke:none;" d="M427 258L428 259L427 258M311 259L311 262L312 262L311 259z"/>
<path style="fill:#c1684c; stroke:none;" d="M327 259L327 260L412 260L386 259L327 259M413 259L414 260L413 259z"/>
<path style="fill:#87ccc6; stroke:none;" d="M427 259L428 260L427 259z"/>
<path style="fill:#c1684c; stroke:none;" d="M427 260L427 264L428 264L427 260z"/>
<path style="fill:#87ccc6; stroke:none;" d="M311 262L312 263L311 262z"/>
<path style="fill:#c1684c; stroke:none;" d="M311 263L311 267L312 267L311 263M6.33333 265.667L6.66667 266.333L6.33333 265.667M427.333 266.667L427.667 267.333L427.333 266.667z"/>
<path style="fill:#f3ab79; stroke:none;" d="M311 267L312 268L311 267M427 268L428 269L427 268z"/>
<path style="fill:#c1684c; stroke:none;" d="M312 269L313 270L312 269M426 269L425 271L426 269M313 270L314 271L313 270z"/>
<path style="fill:#f3ab79; stroke:none;" d="M426 270L427 271L426 270z"/>
<path style="fill:#c1684c; stroke:none;" d="M314 271L315 272L314 271z"/>
<path style="fill:#87ccc6; stroke:none;" d="M425 271L426 272L425 271z"/>
<path style="fill:#f3ab79; stroke:none;" d="M315 272L316 273L315 272z"/>
<path style="fill:#c1684c; stroke:none;" d="M316 272L317 273L316 272M422 272L423 273L422 272z"/>
<path style="fill:#87ccc6; stroke:none;" d="M423 272L424 273L423 272z"/>
<path style="fill:#c1684c; stroke:none;" d="M636.333 273.667L636.667 274.333L636.333 273.667M636 276L637 277L636 276M4.33333 278.667L4.66667 279.333L4.33333 278.667M3 287L4 288L3 287M638 287L639 288L638 287M1 312L1 330L2 330L1 312z"/>
<path style="fill:#87ccc6; stroke:none;" d="M207 320L208 321L207 320z"/>
<path style="fill:#c1684c; stroke:none;" d="M208 320L209 321L208 320z"/>
<path style="fill:#050504; stroke:none;" d="M209.044 320.742C203.469 323.014 202.804 330.746 209.044 332.566C218.901 335.443 232.741 333 243 333L380 333L420 333C424.597 333 432.065 334.414 435.552 330.682C439.975 325.947 435.098 320.682 429.999 320.109C416.025 318.537 401.067 320 387 320L262 320L226 320C220.885 320 213.858 318.78 209.044 320.742z"/>
<path style="fill:#c1684c; stroke:none;" d="M433 320L434 321L433 320M206 321L207 322L206 321M435 321L436 322L435 321M205 322L206 323L205 322z"/>
<path style="fill:#87ccc6; stroke:none;" d="M436 322L437 323L436 322z"/>
<path style="fill:#f3ab79; stroke:none;" d="M204 323L205 324L204 323z"/>
<path style="fill:#c1684c; stroke:none;" d="M204 324L205 325L204 324z"/>
<path style="fill:#87ccc6; stroke:none;" d="M437 324L438 325L437 324z"/>
<path style="fill:#c1684c; stroke:none;" d="M437 325L438 326L437 325M437 328L438 329L437 328z"/>
<path style="fill:#fffefb; stroke:none;" d="M0 329L0 640L287 640L287 639C274.214 635.948 260.863 635.164 248 632.116C218.227 625.059 189.533 613.633 163 598.421C151.775 591.986 137.34 585.093 129 575C123.985 573.721 119.687 568.831 115.714 565.572C105.806 557.446 96.6508 548.358 87.9144 538.997C49.2587 497.578 22.2822 447.126 9.23457 392C5.90498 377.933 3.54011 363.39 2.16975 349C1.53359 342.32 2.99803 335.238 0 329z"/>
<path style="fill:#c1684c; stroke:none;" d="M204 329L205 330L204 329z"/>
<path style="fill:#f3ab79; stroke:none;" d="M437 329L438 330L437 329z"/>
<path style="fill:#c1684c; stroke:none;" d="M436 330L437 331L436 330z"/>
<path style="fill:#f3ab79; stroke:none;" d="M205 331L206 332L205 331z"/>
<path style="fill:#c1684c; stroke:none;" d="M435 331L436 332L435 331z"/>
<path style="fill:#f3ab79; stroke:none;" d="M206 332L207 333L206 332z"/>
<path style="fill:#c1684c; stroke:none;" d="M207 332L208 333L207 332M434 332L435 333L434 332z"/>
<path style="fill:#87ccc6; stroke:none;" d="M208 333L209 334L208 333z"/>
<path style="fill:#c1684c; stroke:none;" d="M209 333L209 334L432 334L411 333L366 333L209 333z"/>
<path style="fill:#87ccc6; stroke:none;" d="M432 333L433 334L432 333z"/>
<path style="fill:#f3ab79; stroke:none;" d="M433 333L434 334L433 333z"/>
<path style="fill:#c1684c; stroke:none;" d="M3.33333 349.667L3.66667 350.333L3.33333 349.667M638.333 352.667L638.667 353.333L638.333 352.667z"/>
<path style="fill:#fffefb; stroke:none;" d="M639 354C635.964 366.747 635.301 380.138 632.349 393C626.966 416.45 618.39 439.282 608.111 461C575.198 530.538 513.016 587.638 442 616.548C412.953 628.372 384.013 631.851 354 639L354 640L640 640L640 438L640 380L639 354z"/>
<path style="fill:#c1684c; stroke:none;" d="M637 360L638 361L637 360M4 362L5 363L4 362M477 367L477 370L478 370L477 367z"/>
<path style="fill:#f3ab79; stroke:none;" d="M209 368L210 369L209 368z"/>
<path style="fill:#87ccc6; stroke:none;" d="M210 368L210 369L432 369L411 368L366 368L210 368z"/>
<path style="fill:#c1684c; stroke:none;" d="M5 369L6 370L5 369z"/>
<path style="fill:#87ccc6; stroke:none;" d="M207 369L208 370L207 369z"/>
<path style="fill:#050504; stroke:none;" d="M208.059 370.028C202.397 373.13 204.188 380.196 210.005 381.682C220.123 384.267 233.556 382 244 382L381 382L421 382C425.336 382 432.231 383.288 435.471 379.682C439.745 374.925 435.23 369.517 429.999 369.059C416.549 367.88 402.505 369 389 369L259 369L223 369C218.576 369 212.067 367.831 208.059 370.028z"/>
<path style="fill:#c1684c; stroke:none;" d="M434 369L435 370L434 369z"/>
<path style="fill:#f3ab79; stroke:none;" d="M205 370L206 371L205 370z"/>
<path style="fill:#c1684c; stroke:none;" d="M206 370L207 371L206 370M435 370L436 371L435 370M205 371L206 372L205 371M436 371L437 372L436 371z"/>
<path style="fill:#87ccc6; stroke:none;" d="M204 372L205 373L204 372z"/>
<path style="fill:#f3ab79; stroke:none;" d="M437 372L438 373L437 372z"/>
<path style="fill:#c1684c; stroke:none;" d="M635.333 372.667L635.667 373.333L635.333 372.667M437.333 373.667L437.667 374.333L437.333 373.667M477 375L477 379L478 379L477 375M437.333 376.667L437.667 377.333L437.333 376.667M204 378L205 379L204 378z"/>
<path style="fill:#f3ab79; stroke:none;" d="M437 378L438 379L437 378z"/>
<path style="fill:#c1684c; stroke:none;" d="M205 379L207 381L205 379M436 379L437 380L436 379z"/>
<path style="fill:#f3ab79; stroke:none;" d="M205 380L206 381L205 380z"/>
<path style="fill:#c1684c; stroke:none;" d="M435 380L436 381L435 380M477 380L477 387L478 387L477 380M207 381L208 382L207 381M434 381L435 382L434 381z"/>
<path style="fill:#f3ab79; stroke:none;" d="M209 382L210 383L209 382z"/>
<path style="fill:#87ccc6; stroke:none;" d="M210 382L210 383L432 383L411 382L366 382L210 382z"/>
<path style="fill:#f3ab79; stroke:none;" d="M432 382L433 383L432 382z"/>
<path style="fill:#c1684c; stroke:none;" d="M463 384L463 391L464 391L463 384M9 389L10 390L9 389z"/>
<path style="fill:#87ccc6; stroke:none;" d="M463 391L463 520L464 520L464 430C464 418.842 467.308 401.266 463 391z"/>
<path style="fill:#c1684c; stroke:none;" d="M14 409L15 410L14 409M15 412L16 413L15 412M626 412L627 413L626 412z"/>
<path style="fill:#87ccc6; stroke:none;" d="M208.667 417.333L209.333 417.667L208.667 417.333z"/>
<path style="fill:#c1684c; stroke:none;" d="M210 417L210 418L432 418L411 417L366 417L210 417z"/>
<path style="fill:#87ccc6; stroke:none;" d="M432 417L433 418L432 417z"/>
<path style="fill:#f3ab79; stroke:none;" d="M433 417L434 418L433 417M206 418L205 420L206 418z"/>
<path style="fill:#c1684c; stroke:none;" d="M207 418L208 419L207 418z"/>
<path style="fill:#050504; stroke:none;" d="M208.109 418.742C202.033 421.357 204.451 429.242 210.015 430.682C219.811 433.217 232.882 431 243 431L380 431L420 431C424.611 431 431.976 432.338 435.471 428.566C439.812 423.882 435.125 418.508 429.999 418.059C415.894 416.823 401.163 418 387 418L261 418L225 418C219.977 418 212.805 416.722 208.109 418.742z"/>
<path style="fill:#c1684c; stroke:none;" d="M434 418L436 420L434 418z"/>
<path style="fill:#f3ab79; stroke:none;" d="M435 418L436 419L435 418z"/>
<path style="fill:#c1684c; stroke:none;" d="M624 418L625 419L624 418M17 419L18 420L17 419M436 420L437 421L436 420M204 421L205 422L204 421z"/>
<path style="fill:#87ccc6; stroke:none;" d="M437 421L438 422L437 421z"/>
<path style="fill:#c1684c; stroke:none;" d="M18 422L19 423L18 422M437.333 422.667L437.667 423.333L437.333 422.667M622 424L623 425L622 424M437.333 425.667L437.667 426.333L437.333 425.667M204 426L205 427L204 426z"/>
<path style="fill:#f3ab79; stroke:none;" d="M204 427L205 428L204 427M437 427L438 428L437 427z"/>
<path style="fill:#c1684c; stroke:none;" d="M621 427L622 428L621 427M20 428L21 429L20 428M205 428L206 429L205 428M436 428L437 429L436 428M206 429L207 430L206 429M435 429L436 430L435 429z"/>
<path style="fill:#87ccc6; stroke:none;" d="M207 430L208 431L207 430z"/>
<path style="fill:#c1684c; stroke:none;" d="M433 430L434 431L433 430z"/>
<path style="fill:#f3ab79; stroke:none;" d="M434 430L435 431L434 430z"/>
<path style="fill:#c1684c; stroke:none;" d="M620 430L621 431L620 430M619 432L620 433L619 432M618.333 434.667L618.667 435.333L618.333 434.667M26 443L27 444L26 443M614 445L615 446L614 445M28 448L29 449L28 448M29 450L30 451L29 450M30 452L31 453L30 452M605 464L606 465L605 464z"/>
<path style="fill:#f3ab79; stroke:none;" d="M207 466L208 467L207 466z"/>
<path style="fill:#c1684c; stroke:none;" d="M208.667 466.333L209.333 466.667L208.667 466.333z"/>
<path style="fill:#050504; stroke:none;" d="M210.015 466.573C203.598 468.473 202.509 476.443 209.044 479.106C216.461 482.129 228.079 480 236 480L298 480C305.475 480 320.483 482.834 326.721 478.142C330.612 475.216 330.08 469.617 325.891 467.318C321.035 464.652 313.349 466 308 466L241 466C231.541 466 219.116 463.878 210.015 466.573z"/>
<path style="fill:#c1684c; stroke:none;" d="M324.667 466.333L325.333 466.667L324.667 466.333M604 466L605 467L604 466z"/>
<path style="fill:#87ccc6; stroke:none;" d="M206 467L207 468L206 467M327 467L328 468L327 467M205 468L206 469L205 468M328 468L329 469L328 468z"/>
<path style="fill:#c1684c; stroke:none;" d="M603 468L604 469L603 468z"/>
<path style="fill:#f3ab79; stroke:none;" d="M204 469L205 470L204 469z"/>
<path style="fill:#c1684c; stroke:none;" d="M204 470L205 471L204 470M329 470L330 471L329 470M602 470L603 471L602 470M601 472L602 473L601 472M329 474L330 475L329 474M204 475L205 476L204 475z"/>
<path style="fill:#87ccc6; stroke:none;" d="M329 475L330 476L329 475z"/>
<path style="fill:#c1684c; stroke:none;" d="M42 476L43 477L42 476z"/>
<path style="fill:#f3ab79; stroke:none;" d="M204 476L205 477L204 476z"/>
<path style="fill:#c1684c; stroke:none;" d="M205 477L206 478L205 477z"/>
<path style="fill:#f3ab79; stroke:none;" d="M328 477L329 478L328 477z"/>
<path style="fill:#c1684c; stroke:none;" d="M206 478L207 479L206 478z"/>
<path style="fill:#87ccc6; stroke:none;" d="M327 478L328 479L327 478z"/>
<path style="fill:#c1684c; stroke:none;" d="M208.667 479.333L209.333 479.667L208.667 479.333M324 479L325 480L324 479z"/>
<path style="fill:#87ccc6; stroke:none;" d="M325 479L326 480L325 479z"/>
<path style="fill:#c1684c; stroke:none;" d="M597 479L598 480L597 479M595 482L596 483L595 482M594 484L595 485L594 484M50 489L51 490L50 489M590 490L591 491L590 490M58 501L59 502L58 501M60 504L61 505L60 504M581 504L582 505L581 504M66 512L67 513L66 512M68 515L69 516L68 515z"/>
<path style="fill:#f3ab79; stroke:none;" d="M463 520L464 521L463 520z"/>
<path style="fill:#c1684c; stroke:none;" d="M477 520L477 528L478 528L477 520M569 520L570 521L569 520M477 529L478 530L477 529M561 529L562 530L561 529M479 530L480 531L479 530M81 531L82 532L81 531M165.333 531.667L165.667 532.333L165.333 531.667M476 531L477 532L476 531M82 532L83 533L82 532M475 532L476 533L475 532M83 533L85 535L83 533M166.667 533.333L167.333 533.667L166.667 533.333M474 533L475 534L474 533M558 533L559 534L558 533M168.667 534.333L169.333 534.667L168.667 534.333M472.667 534.333L473.333 534.667L472.667 534.333M477 534L478 535L477 534M557 534L558 535L557 534M534 557L535 558L534 557M533 558L534 559L533 558M529 561L530 562L529 561M527 563L528 564L527 563M115 564L116 565L115 564M526 564L527 565L526 564M116 565L117 566L116 565M520 569L521 570L520 569M122 570L123 571L122 570M130 576L131 577L130 576M508 578L509 579L508 578M134 579L135 580L134 579M137 581L138 582L137 581M504 581L505 582L504 581M138 582L139 583L138 582M155 593L156 594L155 593M486 593L487 594L486 593M157 594L158 595L157 594M484 594L485 595L484 594M477 598L478 599L477 598M167 600L168 601L167 600M171 602L172 603L171 602M470 602L471 603L470 602M468 603L469 604L468 603M175 604L176 605L175 604M466 604L467 605L466 604M464 605L465 606L464 605M187 610L188 611L187 610M191 612L192 613L191 612M194 613L195 614L194 613M445 614L446 615L445 614M203 617L204 618L203 617M438 617L439 618L438 617M435 618L436 619L435 618M432 619L433 620L432 619M427 621L428 622L427 621M226 625L227 626L226 625M229 626L230 627L229 626M412 626L413 627L412 626M233 627L234 628L233 627M408 627L409 628L408 627M236 628L237 629L236 628M404 628L405 629L404 628M400.667 629.333L401.333 629.667L400.667 629.333M388.667 632.333L389.333 632.667L388.667 632.333M384 633L385 634L384 633M262 634L263 635L262 634M267 635L268 636L267 635M372 635L372 636L375 636L372 635M273 636L274 637L273 636M275 636L275 637L278 637L275 636M282 637L282 638L285 638L282 637M360 637L361 638L360 637M352 638L353 639L352 638z"/>
</svg>
