<?xml version="1.0" standalone="no"?>
<!DOCTYPE svg PUBLIC "-//W3C//DTD SVG 20010904//EN"
 "http://www.w3.org/TR/2001/REC-SVG-20010904/DTD/svg10.dtd">
<svg version="1.0" xmlns="http://www.w3.org/2000/svg"
 width="640.000000pt" height="640.000000pt" viewBox="0 0 640.000000 640.000000"
 preserveAspectRatio="xMidYMid meet">

<g transform="translate(0.000000,640.000000) scale(0.100000,-0.100000)"
fill="#000000" stroke="none">
<path d="M1965 5010 l-320 -320 -3 -1793 -2 -1794 21 -27 20 -26 1523 0 c1361
0 1524 2 1544 16 l22 15 0 2108 c0 2029 -1 2109 -18 2124 -17 16 -118 17
-1242 17 l-1224 0 -321 -320z m2672 -1817 l3 -2003 -1430 0 -1430 0 0 1700 0
1700 285 0 c272 0 286 1 305 20 19 19 20 33 20 305 l0 285 1123 -2 1122 -3 2
-2002z m-2385 1713 l-3 -186 -187 0 -186 0 184 188 c102 103 187 186 190 186
3 -1 4 -86 2 -188z"/>
<path d="M3598 4850 c-73 -22 -156 -100 -189 -177 -21 -48 -27 -135 -14 -193
36 -165 218 -273 381 -225 115 33 190 111 220 226 28 109 -4 216 -87 294 -70
66 -118 85 -209 84 -41 0 -87 -4 -102 -9z m159 -131 c95 -36 138 -148 94 -245
-33 -72 -132 -112 -214 -85 -46 16 -104 80 -113 125 -25 134 109 252 233 205z"/>
<path d="M3393 4195 c-114 -57 -229 -195 -258 -310 -27 -111 -22 -185 15 -205
12 -6 222 -10 548 -10 621 0 578 -8 575 104 -4 176 -116 342 -290 430 -89 44
-116 35 -165 -52 -33 -62 -133 -84 -198 -46 -19 11 -44 39 -57 64 -13 24 -29
48 -36 52 -24 16 -66 7 -134 -27z m177 -215 c107 -54 238 -33 323 52 l48 48
45 -32 c57 -41 110 -112 134 -180 l18 -53 -436 -5 c-498 -6 -463 -13 -419 83
28 61 75 118 131 159 l39 28 36 -39 c20 -21 56 -49 81 -61z"/>
<path d="M2061 3174 c-27 -34 -27 -66 0 -90 20 -18 54 -19 1151 -19 l1130 0
19 24 c24 30 24 52 -2 85 l-20 26 -1129 0 -1129 0 -20 -26z"/>
<path d="M2060 2690 c-24 -24 -26 -57 -4 -88 l15 -22 1135 0 1134 0 21 21 c24
24 20 75 -8 97 -13 9 -258 12 -1145 12 -1115 0 -1128 0 -1148 -20z"/>
<path d="M2056 2198 c-22 -31 -20 -64 4 -88 20 -20 33 -20 1149 -20 l1130 0
20 26 c25 32 26 52 5 82 l-15 22 -1139 0 -1139 0 -15 -22z"/>
<path d="M2065 1715 c-33 -32 -32 -68 1 -94 26 -21 35 -21 606 -21 l579 0 24
25 c14 13 25 34 25 45 0 11 -11 32 -25 45 l-24 25 -581 0 -581 0 -24 -25z"/>
</g>
</svg>
