<svg fill="#000000" xmlns="http://www.w3.org/2000/svg"  viewBox="0 0 48 48" width="40px" height="40px"><path d="M 38.292969 6.9960938 C 38.138969 6.9960938 37.982172 7.0063437 37.826172 7.0273438 C 34.285172 7.5013438 31.621813 9.3477813 29.632812 11.425781 C 27.908813 11.155781 26.043 11 24 11 C 21.68 11 19.592594 11.203781 17.683594 11.550781 C 15.688594 9.4307812 12.714563 7.5122969 9.1015625 7.0292969 C 8.9485625 7.0092969 8.7974844 7 8.6464844 7 C 7.1484844 7 5.7764375 7.98175 5.3984375 9.46875 C 4.5484375 12.81775 5.1900781 15.955891 6.0800781 18.337891 C 3.9950781 21.099891 3 24.499281 3 28.238281 C 3 34.989281 8 43 20 43 L 28 43 C 39 43 45 35.619281 45 28.238281 C 45 24.178281 43.834281 20.511719 41.363281 17.636719 C 42.090281 15.379719 42.295344 12.4625 41.527344 9.4375 C 41.150344 7.9535 39.786969 6.9960938 38.292969 6.9960938 z M 15.226562 22 C 17.291563 22 20.387 23 24 23 C 27.597 23 30.709438 22 32.773438 22 C 36.902437 22 40 25 40 30 C 40 36 33.834078 40 26.580078 40 C 25.548078 40 22.742922 39.991 21.419922 40 C 13.229922 40.055 8 36 8 30 C 8 25 11.097562 22 15.226562 22 z M 16.5 28 A 2.5 3 0 0 0 16.5 34 A 2.5 3 0 0 0 16.5 28 z M 31.5 28 A 2.5 3 0 0 0 31.5 34 A 2.5 3 0 0 0 31.5 28 z"/></svg>