<?xml version="1.0" standalone="no"?>
<!DOCTYPE svg PUBLIC "-//W3C//DTD SVG 20010904//EN"
 "http://www.w3.org/TR/2001/REC-SVG-20010904/DTD/svg10.dtd">
<svg version="1.0" xmlns="http://www.w3.org/2000/svg"
 width="64.000000pt" height="40.000000pt" viewBox="0 0 64.000000 40.000000"
 preserveAspectRatio="xMidYMid meet">

<g transform="translate(0.000000,40.000000) scale(0.100000,-0.100000)"
fill="#000000" stroke="none">
<path d="M318 375 c-4 -4 -25 -7 -48 -7 -38 1 -52 -10 -30 -23 13 -8 13 -35
-1 -35 -5 0 -8 4 -4 9 3 5 0 13 -6 17 -8 4 -9 3 -5 -4 4 -7 3 -12 -3 -12 -5 0
-12 6 -14 13 -4 10 -6 10 -6 0 -1 -15 -51 -18 -51 -3 0 5 7 7 15 4 8 -3 22 1
30 10 19 18 8 20 -29 6 -42 -16 -33 -40 15 -40 22 0 48 -4 58 -9 14 -8 17 -5
19 17 2 28 17 42 45 42 25 0 21 -18 -5 -22 -19 -2 -24 -11 -28 -48 l-5 -44
-18 27 c-15 23 -25 27 -62 27 -25 0 -45 -2 -45 -4 0 -2 -7 -40 -15 -83 -8 -43
-15 -79 -15 -80 0 -2 9 -3 20 -3 13 0 20 7 20 19 0 14 10 20 38 24 26 5 42 15
55 34 l18 28 -6 -32 c-5 -26 -3 -33 9 -33 15 0 19 10 31 68 6 27 11 33 28 30
12 -2 21 -8 21 -13 -1 -6 -5 -27 -8 -48 -6 -34 -5 -38 11 -35 13 2 20 17 27
51 10 55 -2 77 -41 77 -18 0 -24 5 -21 18 2 9 11 16 21 16 20 -2 23 12 5 19
-7 3 -8 6 -3 6 6 0 16 -3 24 -8 19 -12 3 -34 -20 -28 -11 3 -19 1 -19 -4 0 -5
11 -9 24 -9 38 0 50 -23 42 -83 -3 -28 -9 -62 -12 -74 -5 -17 -2 -23 11 -23 9
0 19 9 22 20 4 13 14 20 30 20 27 0 83 50 83 74 0 33 -37 56 -92 56 l-53 1 29
23 28 24 -28 -5 c-23 -4 -26 -2 -14 6 12 9 11 11 -9 11 -13 0 -22 3 -18 6 8 8
78 -9 131 -31 28 -12 35 -19 27 -28 -6 -8 -6 -18 -1 -27 27 -43 -21 -120 -74
-120 -19 0 -26 -5 -26 -19 0 -11 -9 -21 -22 -24 -27 -8 -38 -1 -38 24 0 13 -7
19 -21 19 -20 0 -21 4 -16 50 4 29 2 50 -3 50 -6 0 -10 -6 -10 -12 0 -7 -5
-30 -11 -50 -8 -31 -15 -38 -34 -38 -14 0 -25 5 -25 10 0 7 -6 7 -19 0 -11 -5
-29 -10 -40 -10 -12 0 -21 -7 -21 -15 0 -8 7 -15 16 -15 8 0 13 4 10 9 -8 13
37 19 64 9 17 -6 28 -4 38 5 11 11 19 12 38 3 36 -17 29 -44 -9 -37 -5 1 -7
-6 -5 -16 4 -21 51 -21 84 -1 11 8 53 3 62 -7 3 -3 -4 -6 -16 -7 -12 -1 -37
-4 -54 -6 -57 -8 -169 -4 -199 7 -101 38 -92 29 -85 84 4 27 10 63 13 78 3 16
2 29 -3 29 -8 0 -12 -21 -15 -78 -1 -13 -6 -21 -13 -19 -6 2 -10 12 -9 22 1
12 -2 14 -10 6 -7 -7 -7 -14 1 -24 7 -8 8 -18 4 -22 -4 -5 -1 -5 6 -1 8 5 12
1 12 -11 -1 -14 -6 -12 -25 12 -14 17 -25 39 -25 50 0 33 12 65 21 59 5 -3 6
-11 2 -17 -11 -18 -12 -38 -2 -31 5 3 9 12 9 20 0 8 4 14 10 14 5 0 7 -8 4
-17 -5 -15 -4 -16 5 -3 8 12 5 19 -11 32 -27 20 -33 17 -46 -20 -23 -67 46
-146 156 -178 41 -12 81 -15 154 -12 83 4 107 9 155 34 135 69 136 186 3 251
-53 27 -166 44 -182 28z m72 -49 c0 -3 -4 -8 -10 -11 -5 -3 -10 -1 -10 4 0 6
5 11 10 11 6 0 10 -2 10 -4z m190 -78 c0 -7 -5 -6 -14 1 -12 10 -14 9 -11 -6
2 -10 4 -22 4 -28 1 -5 6 -3 11 5 8 12 10 9 10 -11 0 -51 -91 -120 -131 -98
-12 6 -18 14 -13 18 5 3 13 11 18 16 6 6 7 4 3 -6 -4 -13 0 -16 19 -15 13 0
26 7 29 14 3 7 9 10 15 7 5 -3 10 -1 10 5 0 6 4 9 9 6 5 -4 8 2 7 11 -2 10 -6
17 -9 16 -4 -2 -13 -3 -19 -3 -10 0 -10 -2 0 -9 11 -7 11 -9 -2 -14 -30 -12
-26 12 6 38 18 15 27 24 20 20 -11 -6 -12 -3 -4 12 7 12 7 25 1 34 -5 7 -9 23
-9 34 1 18 3 17 25 -8 14 -15 25 -33 25 -39z m-362 -1 c5 -23 -15 -47 -39 -47
-20 0 -25 23 -13 55 9 21 48 15 52 -8z m258 -2 c4 -25 -13 -45 -37 -45 -20 0
-25 23 -13 55 9 22 46 15 50 -10z m19 -95 c3 -5 -1 -10 -9 -10 -9 0 -16 5 -16
10 0 6 4 10 9 10 6 0 13 -4 16 -10z m-130 -40 c3 -5 1 -10 -4 -10 -6 0 -11 5
-11 10 0 6 2 10 4 10 3 0 8 -4 11 -10z m-25 -10 c0 -5 -5 -10 -11 -10 -5 0 -7
5 -4 10 3 6 8 10 11 10 2 0 4 -4 4 -10z"/>
<path d="M177 238 c-4 -12 -4 -24 -2 -26 7 -8 35 20 35 34 0 23 -27 16 -33 -8z
m14 -11 c-10 -9 -11 -8 -5 6 3 10 9 15 12 12 3 -3 0 -11 -7 -18z"/>
<path d="M440 250 c0 -5 7 -7 15 -4 8 4 15 8 15 10 0 2 -7 4 -15 4 -8 0 -15
-4 -15 -10z"/>
<path d="M440 220 c-9 -6 -10 -10 -3 -10 6 0 15 5 18 10 8 12 4 12 -15 0z"/>
<path d="M110 319 c0 -5 5 -7 10 -4 6 3 10 8 10 11 0 2 -4 4 -10 4 -5 0 -10
-5 -10 -11z"/>
<path d="M412 319 c-9 -4 7 -8 36 -10 30 -2 56 0 60 5 3 5 0 6 -6 2 -7 -4 -12
-4 -12 1 0 9 -53 11 -78 2z"/>
<path d="M80 300 c-7 -5 0 -9 19 -12 17 -2 31 -1 31 3 0 11 -36 17 -50 9z"/>
<path d="M215 130 c3 -5 16 -10 28 -10 18 0 19 2 7 10 -20 13 -43 13 -35 0z"/>
<path d="M150 120 c0 -5 5 -10 11 -10 5 0 7 5 4 10 -3 6 -8 10 -11 10 -2 0 -4
-4 -4 -10z"/>
<path d="M270 126 c0 -2 7 -6 15 -10 8 -3 15 -1 15 4 0 6 -7 10 -15 10 -8 0
-15 -2 -15 -4z"/>
<path d="M190 111 c0 -13 60 -25 71 -14 6 6 5 10 -3 10 -8 0 -26 3 -41 7 -15
3 -27 2 -27 -3z"/>
</g>
</svg>
