<?xml version="1.0" encoding="UTF-8"?>
<svg xmlns="http://www.w3.org/2000/svg" xmlns:xlink="http://www.w3.org/1999/xlink" width="56px" height="30px" viewBox="0 0 55 30" version="1.1">
<defs>
<clipPath id="clip1">
  <path d="M 0.773438 14.984375 C 0.773438 22.828125 12.742188 29.1875 27.507812 29.1875 C 42.273438 29.1875 54.242188 22.828125 54.242188 14.984375 C 54.242188 7.140625 42.273438 0.78125 27.507812 0.78125 C 12.742188 0.78125 0.773438 7.140625 0.773438 14.984375 "/>
</clipPath>
<radialGradient id="radial0" gradientUnits="userSpaceOnUse" cx="0" cy="0" fx="0" fy="0" r="1" gradientTransform="matrix(35.105809,0,0,35.454872,16.824896,5.774597)">
<stop offset="0" style="stop-color:rgb(68.235294%,69.803922%,83.529412%);stop-opacity:1;"/>
<stop offset="0.3" style="stop-color:rgb(68.235294%,69.803922%,83.529412%);stop-opacity:1;"/>
<stop offset="0.75" style="stop-color:rgb(28.235294%,29.803922%,53.72549%);stop-opacity:1;"/>
<stop offset="1" style="stop-color:rgb(28.235294%,29.803922%,53.72549%);stop-opacity:1;"/>
</radialGradient>
</defs>
<g id="surface1">
<g clip-path="url(#clip1)" clip-rule="nonzero">
<path style=" stroke:none;fill-rule:nonzero;fill:url(#radial0);" d="M 0.773438 14.984375 C 0.773438 22.828125 12.742188 29.1875 27.507812 29.1875 C 42.273438 29.1875 54.242188 22.828125 54.242188 14.984375 C 54.242188 7.140625 42.273438 0.78125 27.507812 0.78125 C 12.742188 0.78125 0.773438 7.140625 0.773438 14.984375 "/>
</g>
<path style=" stroke:none;fill-rule:nonzero;fill:rgb(46.666667%,48.235294%,70.196078%);fill-opacity:1;" d="M 27.507812 28.132812 C 41.695312 28.132812 53.199219 22.246094 53.199219 14.984375 C 53.199219 7.722656 41.695312 1.835938 27.507812 1.835938 C 13.320312 1.835938 1.816406 7.722656 1.816406 14.984375 C 1.816406 22.246094 13.320312 28.132812 27.507812 28.132812 "/>
<path style=" stroke:none;fill-rule:nonzero;fill:rgb(0%,0%,0%);fill-opacity:1;" d="M 15.296875 16.613281 C 16.464844 16.613281 17.335938 16.398438 17.886719 15.96875 C 18.433594 15.546875 18.808594 14.808594 19.007812 13.785156 C 19.191406 12.828125 19.121094 12.160156 18.796875 11.800781 C 18.46875 11.429688 17.757812 11.242188 16.679688 11.242188 L 14.816406 11.242188 L 13.78125 16.613281 Z M 9.199219 23.230469 C 9.113281 23.230469 9.03125 23.191406 8.976562 23.125 C 8.921875 23.054688 8.898438 22.96875 8.914062 22.882812 L 11.65625 8.648438 C 11.679688 8.511719 11.800781 8.410156 11.941406 8.410156 L 17.84375 8.410156 C 19.699219 8.410156 21.078125 8.921875 21.949219 9.921875 C 22.820312 10.933594 23.089844 12.34375 22.75 14.117188 C 22.609375 14.835938 22.371094 15.507812 22.039062 16.109375 C 21.707031 16.710938 21.265625 17.265625 20.734375 17.761719 C 20.09375 18.367188 19.367188 18.804688 18.582031 19.0625 C 17.808594 19.316406 16.816406 19.445312 15.628906 19.445312 L 13.238281 19.445312 L 12.554688 22.992188 C 12.527344 23.132812 12.410156 23.230469 12.269531 23.230469 Z M 9.199219 23.230469 "/>
<path style=" stroke:none;fill-rule:nonzero;fill:rgb(100%,100%,100%);fill-opacity:1;" d="M 15.054688 11.535156 L 16.679688 11.535156 C 17.980469 11.535156 18.429688 11.824219 18.582031 11.996094 C 18.835938 12.28125 18.882812 12.878906 18.722656 13.730469 C 18.539062 14.683594 18.199219 15.359375 17.710938 15.738281 C 17.210938 16.125 16.398438 16.320312 15.296875 16.320312 L 14.136719 16.320312 Z M 17.84375 8.117188 L 11.941406 8.117188 C 11.664062 8.117188 11.421875 8.316406 11.371094 8.59375 L 8.632812 22.824219 C 8.597656 22.996094 8.644531 23.175781 8.753906 23.308594 C 8.863281 23.445312 9.027344 23.523438 9.199219 23.523438 L 12.269531 23.523438 C 12.546875 23.523438 12.789062 23.324219 12.839844 23.050781 L 13.476562 19.738281 L 15.628906 19.738281 C 16.84375 19.738281 17.871094 19.605469 18.671875 19.339844 C 19.5 19.070312 20.257812 18.609375 20.929688 17.976562 C 21.488281 17.457031 21.945312 16.878906 22.292969 16.25 C 22.640625 15.625 22.890625 14.921875 23.035156 14.171875 C 23.394531 12.304688 23.101562 10.8125 22.167969 9.730469 C 21.242188 8.660156 19.785156 8.117188 17.84375 8.117188 M 13.429688 16.90625 L 15.296875 16.90625 C 16.535156 16.90625 17.457031 16.671875 18.0625 16.199219 C 18.671875 15.730469 19.078125 14.945312 19.289062 13.84375 C 19.492188 12.785156 19.402344 12.039062 19.011719 11.601562 C 18.625 11.167969 17.847656 10.949219 16.679688 10.949219 L 14.578125 10.949219 L 13.429688 16.90625 M 17.84375 8.703125 C 19.621094 8.703125 20.914062 9.175781 21.730469 10.117188 C 22.542969 11.058594 22.789062 12.371094 22.464844 14.058594 C 22.332031 14.753906 22.105469 15.390625 21.785156 15.964844 C 21.46875 16.542969 21.050781 17.066406 20.535156 17.546875 C 19.921875 18.125 19.242188 18.539062 18.492188 18.785156 C 17.742188 19.03125 16.789062 19.152344 15.628906 19.152344 L 13 19.152344 L 12.269531 22.9375 L 9.199219 22.9375 L 11.941406 8.703125 L 17.84375 8.703125 "/>
<path style=" stroke:none;fill-rule:nonzero;fill:rgb(0%,0%,0%);fill-opacity:1;" d="M 29.789062 19.445312 C 29.703125 19.445312 29.621094 19.40625 29.5625 19.339844 C 29.507812 19.273438 29.488281 19.183594 29.503906 19.097656 L 30.714844 12.800781 C 30.832031 12.199219 30.800781 11.769531 30.636719 11.589844 C 30.53125 11.476562 30.226562 11.292969 29.320312 11.292969 L 27.125 11.292969 L 25.601562 19.210938 C 25.574219 19.347656 25.453125 19.445312 25.316406 19.445312 L 22.269531 19.445312 C 22.183594 19.445312 22.101562 19.40625 22.046875 19.339844 C 21.992188 19.273438 21.96875 19.183594 21.984375 19.097656 L 24.722656 4.863281 C 24.75 4.726562 24.871094 4.628906 25.007812 4.628906 L 28.054688 4.628906 C 28.140625 4.628906 28.222656 4.667969 28.277344 4.734375 C 28.335938 4.800781 28.355469 4.890625 28.339844 4.976562 L 27.679688 8.410156 L 30.039062 8.410156 C 31.839844 8.410156 33.058594 8.730469 33.769531 9.390625 C 34.492188 10.0625 34.71875 11.136719 34.441406 12.585938 L 33.167969 19.210938 C 33.140625 19.347656 33.019531 19.445312 32.882812 19.445312 Z M 29.789062 19.445312 "/>
<path style=" stroke:none;fill-rule:nonzero;fill:rgb(100%,100%,100%);fill-opacity:1;" d="M 28.054688 4.335938 L 25.007812 4.335938 C 24.730469 4.335938 24.492188 4.53125 24.441406 4.808594 L 21.699219 19.042969 C 21.667969 19.214844 21.710938 19.390625 21.824219 19.527344 C 21.933594 19.660156 22.097656 19.738281 22.269531 19.738281 L 25.316406 19.738281 C 25.59375 19.738281 25.832031 19.539062 25.886719 19.265625 L 27.363281 11.585938 L 29.320312 11.585938 C 30.226562 11.585938 30.414062 11.78125 30.421875 11.789062 C 30.476562 11.847656 30.550781 12.125 30.429688 12.742188 L 29.21875 19.042969 C 29.183594 19.214844 29.230469 19.390625 29.339844 19.527344 C 29.449219 19.660156 29.613281 19.738281 29.789062 19.738281 L 32.882812 19.738281 C 33.160156 19.738281 33.398438 19.539062 33.453125 19.265625 L 34.726562 12.640625 C 35.023438 11.085938 34.769531 9.921875 33.964844 9.175781 C 33.199219 8.464844 31.914062 8.117188 30.039062 8.117188 L 28.03125 8.117188 L 28.625 5.03125 C 28.65625 4.859375 28.613281 4.683594 28.503906 4.546875 C 28.394531 4.414062 28.226562 4.335938 28.054688 4.335938 M 28.054688 4.921875 L 27.328125 8.703125 L 30.039062 8.703125 C 31.746094 8.703125 32.925781 9.003906 33.574219 9.605469 C 34.222656 10.207031 34.414062 11.183594 34.15625 12.53125 L 32.882812 19.152344 L 29.789062 19.152344 L 31 12.855469 C 31.136719 12.140625 31.085938 11.652344 30.847656 11.390625 C 30.609375 11.128906 30.097656 11 29.320312 11 L 26.886719 11 L 25.316406 19.152344 L 22.269531 19.152344 L 25.007812 4.921875 L 28.054688 4.921875 "/>
<path style=" stroke:none;fill-rule:nonzero;fill:rgb(0%,0%,0%);fill-opacity:1;" d="M 39.261719 16.613281 C 40.425781 16.613281 41.296875 16.398438 41.847656 15.96875 C 42.394531 15.546875 42.769531 14.8125 42.96875 13.785156 C 43.152344 12.828125 43.082031 12.160156 42.761719 11.800781 C 42.429688 11.429688 41.71875 11.242188 40.644531 11.242188 L 38.777344 11.242188 L 37.746094 16.613281 Z M 33.164062 23.230469 C 33.078125 23.230469 32.996094 23.191406 32.9375 23.125 C 32.882812 23.054688 32.863281 22.96875 32.878906 22.882812 L 35.617188 8.648438 C 35.644531 8.511719 35.761719 8.410156 35.902344 8.410156 L 41.804688 8.410156 C 43.660156 8.410156 45.042969 8.921875 45.910156 9.921875 C 46.78125 10.933594 47.050781 12.34375 46.710938 14.117188 C 46.574219 14.835938 46.332031 15.507812 46 16.109375 C 45.667969 16.710938 45.230469 17.265625 44.695312 17.761719 C 44.054688 18.367188 43.332031 18.804688 42.542969 19.0625 C 41.769531 19.316406 40.777344 19.445312 39.589844 19.445312 L 37.199219 19.445312 L 36.519531 22.992188 C 36.492188 23.132812 36.371094 23.230469 36.234375 23.230469 Z M 33.164062 23.230469 "/>
<path style=" stroke:none;fill-rule:nonzero;fill:rgb(100%,100%,100%);fill-opacity:1;" d="M 39.019531 11.535156 L 40.644531 11.535156 C 41.941406 11.535156 42.390625 11.824219 42.546875 11.996094 C 42.800781 12.28125 42.847656 12.878906 42.683594 13.730469 C 42.5 14.683594 42.160156 15.359375 41.671875 15.738281 C 41.171875 16.125 40.363281 16.320312 39.261719 16.320312 L 38.097656 16.320312 Z M 41.804688 8.117188 L 35.902344 8.117188 C 35.625 8.117188 35.386719 8.316406 35.332031 8.59375 L 32.59375 22.824219 C 32.5625 22.996094 32.605469 23.175781 32.714844 23.308594 C 32.824219 23.445312 32.988281 23.523438 33.164062 23.523438 L 36.234375 23.523438 C 36.511719 23.523438 36.75 23.324219 36.804688 23.050781 L 37.441406 19.738281 L 39.589844 19.738281 C 40.808594 19.738281 41.832031 19.605469 42.636719 19.339844 C 43.460938 19.070312 44.222656 18.609375 44.894531 17.976562 C 45.449219 17.457031 45.90625 16.878906 46.253906 16.25 C 46.601562 15.625 46.851562 14.921875 46.996094 14.171875 C 47.355469 12.304688 47.0625 10.8125 46.128906 9.730469 C 45.203125 8.660156 43.75 8.117188 41.804688 8.117188 M 37.394531 16.90625 L 39.261719 16.90625 C 40.5 16.90625 41.421875 16.671875 42.027344 16.199219 C 42.632812 15.730469 43.042969 14.945312 43.253906 13.84375 C 43.457031 12.785156 43.363281 12.039062 42.976562 11.601562 C 42.585938 11.167969 41.808594 10.949219 40.644531 10.949219 L 38.539062 10.949219 L 37.394531 16.90625 M 41.804688 8.703125 C 43.582031 8.703125 44.878906 9.175781 45.691406 10.117188 C 46.507812 11.058594 46.75 12.371094 46.425781 14.058594 C 46.292969 14.753906 46.066406 15.390625 45.75 15.964844 C 45.429688 16.542969 45.011719 17.066406 44.5 17.546875 C 43.886719 18.125 43.203125 18.539062 42.457031 18.785156 C 41.707031 19.03125 40.75 19.152344 39.589844 19.152344 L 36.960938 19.152344 L 36.234375 22.9375 L 33.164062 22.9375 L 35.902344 8.703125 L 41.804688 8.703125 "/>
</g>
</svg>
