<?xml version="1.0" standalone="no"?>
<!DOCTYPE svg PUBLIC "-//W3C//DTD SVG 20010904//EN"
 "http://www.w3.org/TR/2001/REC-SVG-20010904/DTD/svg10.dtd">
<svg version="1.0" xmlns="http://www.w3.org/2000/svg"
 width="300.000000pt" height="300.000000pt" viewBox="0 0 300.000000 300.000000"
 preserveAspectRatio="xMidYMid meet">

<g transform="translate(0.000000,300.000000) scale(0.100000,-0.100000)"
fill="#000000" stroke="none">
<path d="M1340 2989 c-527 -55 -998 -402 -1212 -893 -138 -317 -161 -682 -63
-1018 121 -419 434 -773 839 -950 317 -138 682 -161 1018 -63 503 145 899 558
1029 1071 203 804 -295 1626 -1101 1818 -177 42 -333 53 -510 35z m20 -929
c128 -170 236 -310 240 -310 4 0 137 140 294 310 l287 310 82 0 81 0 -35 -37
c-20 -21 -150 -162 -289 -313 -139 -151 -275 -298 -302 -325 l-48 -51 375
-499 c206 -275 375 -503 375 -507 0 -5 -123 -8 -272 -8 l-273 1 -254 340
c-175 235 -257 336 -265 330 -6 -5 -148 -158 -316 -340 l-305 -331 -77 0 c-43
0 -78 2 -78 5 0 3 159 177 353 386 193 209 353 384 355 387 1 4 -158 221 -353
482 -195 260 -355 475 -355 477 0 2 123 3 274 3 l274 0 232 -310z"/>
<path d="M827 2236 c4 -7 256 -345 558 -749 l550 -736 123 -1 c76 0 122 4 120
10 -1 5 -252 343 -556 750 l-554 740 -124 0 c-103 0 -124 -2 -117 -14z"/>
</g>
</svg>
